<?xml version="1.0" encoding="utf-8" standalone="no"?>
<!DOCTYPE svg PUBLIC "-//W3C//DTD SVG 1.1//EN"
  "http://www.w3.org/Graphics/SVG/1.1/DTD/svg11.dtd">
<!-- Created with matplotlib (https://matplotlib.org/) -->
<svg height="288pt" version="1.1" viewBox="0 0 432 288" width="432pt" xmlns="http://www.w3.org/2000/svg" xmlns:xlink="http://www.w3.org/1999/xlink">
 <defs>
  <style type="text/css">
*{stroke-linecap:butt;stroke-linejoin:round;}
  </style>
 </defs>
 <g id="figure_1">
  <g id="patch_1">
   <path d="M 0 288 
L 432 288 
L 432 0 
L 0 0 
z
" style="fill:#ffffff;"/>
  </g>
  <g id="axes_1">
   <g id="patch_2">
    <path d="M 54 252 
L 388.8 252 
L 388.8 34.56 
L 54 34.56 
z
" style="fill:#ffffff;"/>
   </g>
   <g id="matplotlib.axis_1">
    <g id="xtick_1">
     <g id="line2d_1">
      <path clip-path="url(#pd9aac8a1df)" d="M 109.706969 252 
L 109.706969 34.56 
" style="fill:none;stroke:#b0b0b0;stroke-linecap:square;stroke-width:0.8;"/>
     </g>
     <g id="line2d_2">
      <defs>
       <path d="M 0 0 
L 0 3.5 
" id="mb109c93110" style="stroke:#000000;stroke-width:0.8;"/>
      </defs>
      <g>
       <use style="stroke:#000000;stroke-width:0.8;" x="109.706969" xlink:href="#mb109c93110" y="252"/>
      </g>
     </g>
     <g id="text_1">
      <!-- 500 -->
      <defs>
       <path d="M 10.796875 72.90625 
L 49.515625 72.90625 
L 49.515625 64.59375 
L 19.828125 64.59375 
L 19.828125 46.734375 
Q 21.96875 47.46875 24.109375 47.828125 
Q 26.265625 48.1875 28.421875 48.1875 
Q 40.625 48.1875 47.75 41.5 
Q 54.890625 34.8125 54.890625 23.390625 
Q 54.890625 11.625 47.5625 5.09375 
Q 40.234375 -1.421875 26.90625 -1.421875 
Q 22.3125 -1.421875 17.546875 -0.640625 
Q 12.796875 0.140625 7.71875 1.703125 
L 7.71875 11.625 
Q 12.109375 9.234375 16.796875 8.0625 
Q 21.484375 6.890625 26.703125 6.890625 
Q 35.15625 6.890625 40.078125 11.328125 
Q 45.015625 15.765625 45.015625 23.390625 
Q 45.015625 31 40.078125 35.4375 
Q 35.15625 39.890625 26.703125 39.890625 
Q 22.75 39.890625 18.8125 39.015625 
Q 14.890625 38.140625 10.796875 36.28125 
z
" id="DejaVuSans-53"/>
       <path d="M 31.78125 66.40625 
Q 24.171875 66.40625 20.328125 58.90625 
Q 16.5 51.421875 16.5 36.375 
Q 16.5 21.390625 20.328125 13.890625 
Q 24.171875 6.390625 31.78125 6.390625 
Q 39.453125 6.390625 43.28125 13.890625 
Q 47.125 21.390625 47.125 36.375 
Q 47.125 51.421875 43.28125 58.90625 
Q 39.453125 66.40625 31.78125 66.40625 
z
M 31.78125 74.21875 
Q 44.046875 74.21875 50.515625 64.515625 
Q 56.984375 54.828125 56.984375 36.375 
Q 56.984375 17.96875 50.515625 8.265625 
Q 44.046875 -1.421875 31.78125 -1.421875 
Q 19.53125 -1.421875 13.0625 8.265625 
Q 6.59375 17.96875 6.59375 36.375 
Q 6.59375 54.828125 13.0625 64.515625 
Q 19.53125 74.21875 31.78125 74.21875 
z
" id="DejaVuSans-48"/>
      </defs>
      <g transform="translate(100.163219 266.598437)scale(0.1 -0.1)">
       <use xlink:href="#DejaVuSans-53"/>
       <use x="63.623047" xlink:href="#DejaVuSans-48"/>
       <use x="127.246094" xlink:href="#DejaVuSans-48"/>
      </g>
     </g>
    </g>
    <g id="xtick_2">
     <g id="line2d_3">
      <path clip-path="url(#pd9aac8a1df)" d="M 165.525575 252 
L 165.525575 34.56 
" style="fill:none;stroke:#b0b0b0;stroke-linecap:square;stroke-width:0.8;"/>
     </g>
     <g id="line2d_4">
      <g>
       <use style="stroke:#000000;stroke-width:0.8;" x="165.525575" xlink:href="#mb109c93110" y="252"/>
      </g>
     </g>
     <g id="text_2">
      <!-- 1000 -->
      <defs>
       <path d="M 12.40625 8.296875 
L 28.515625 8.296875 
L 28.515625 63.921875 
L 10.984375 60.40625 
L 10.984375 69.390625 
L 28.421875 72.90625 
L 38.28125 72.90625 
L 38.28125 8.296875 
L 54.390625 8.296875 
L 54.390625 0 
L 12.40625 0 
z
" id="DejaVuSans-49"/>
      </defs>
      <g transform="translate(152.800575 266.598437)scale(0.1 -0.1)">
       <use xlink:href="#DejaVuSans-49"/>
       <use x="63.623047" xlink:href="#DejaVuSans-48"/>
       <use x="127.246094" xlink:href="#DejaVuSans-48"/>
       <use x="190.869141" xlink:href="#DejaVuSans-48"/>
      </g>
     </g>
    </g>
    <g id="xtick_3">
     <g id="line2d_5">
      <path clip-path="url(#pd9aac8a1df)" d="M 221.344181 252 
L 221.344181 34.56 
" style="fill:none;stroke:#b0b0b0;stroke-linecap:square;stroke-width:0.8;"/>
     </g>
     <g id="line2d_6">
      <g>
       <use style="stroke:#000000;stroke-width:0.8;" x="221.344181" xlink:href="#mb109c93110" y="252"/>
      </g>
     </g>
     <g id="text_3">
      <!-- 1500 -->
      <g transform="translate(208.619181 266.598437)scale(0.1 -0.1)">
       <use xlink:href="#DejaVuSans-49"/>
       <use x="63.623047" xlink:href="#DejaVuSans-53"/>
       <use x="127.246094" xlink:href="#DejaVuSans-48"/>
       <use x="190.869141" xlink:href="#DejaVuSans-48"/>
      </g>
     </g>
    </g>
    <g id="xtick_4">
     <g id="line2d_7">
      <path clip-path="url(#pd9aac8a1df)" d="M 277.162788 252 
L 277.162788 34.56 
" style="fill:none;stroke:#b0b0b0;stroke-linecap:square;stroke-width:0.8;"/>
     </g>
     <g id="line2d_8">
      <g>
       <use style="stroke:#000000;stroke-width:0.8;" x="277.162788" xlink:href="#mb109c93110" y="252"/>
      </g>
     </g>
     <g id="text_4">
      <!-- 2000 -->
      <defs>
       <path d="M 19.1875 8.296875 
L 53.609375 8.296875 
L 53.609375 0 
L 7.328125 0 
L 7.328125 8.296875 
Q 12.9375 14.109375 22.625 23.890625 
Q 32.328125 33.6875 34.8125 36.53125 
Q 39.546875 41.84375 41.421875 45.53125 
Q 43.3125 49.21875 43.3125 52.78125 
Q 43.3125 58.59375 39.234375 62.25 
Q 35.15625 65.921875 28.609375 65.921875 
Q 23.96875 65.921875 18.8125 64.3125 
Q 13.671875 62.703125 7.8125 59.421875 
L 7.8125 69.390625 
Q 13.765625 71.78125 18.9375 73 
Q 24.125 74.21875 28.421875 74.21875 
Q 39.75 74.21875 46.484375 68.546875 
Q 53.21875 62.890625 53.21875 53.421875 
Q 53.21875 48.921875 51.53125 44.890625 
Q 49.859375 40.875 45.40625 35.40625 
Q 44.1875 33.984375 37.640625 27.21875 
Q 31.109375 20.453125 19.1875 8.296875 
z
" id="DejaVuSans-50"/>
      </defs>
      <g transform="translate(264.437788 266.598437)scale(0.1 -0.1)">
       <use xlink:href="#DejaVuSans-50"/>
       <use x="63.623047" xlink:href="#DejaVuSans-48"/>
       <use x="127.246094" xlink:href="#DejaVuSans-48"/>
       <use x="190.869141" xlink:href="#DejaVuSans-48"/>
      </g>
     </g>
    </g>
    <g id="xtick_5">
     <g id="line2d_9">
      <path clip-path="url(#pd9aac8a1df)" d="M 332.981394 252 
L 332.981394 34.56 
" style="fill:none;stroke:#b0b0b0;stroke-linecap:square;stroke-width:0.8;"/>
     </g>
     <g id="line2d_10">
      <g>
       <use style="stroke:#000000;stroke-width:0.8;" x="332.981394" xlink:href="#mb109c93110" y="252"/>
      </g>
     </g>
     <g id="text_5">
      <!-- 2500 -->
      <g transform="translate(320.256394 266.598437)scale(0.1 -0.1)">
       <use xlink:href="#DejaVuSans-50"/>
       <use x="63.623047" xlink:href="#DejaVuSans-53"/>
       <use x="127.246094" xlink:href="#DejaVuSans-48"/>
       <use x="190.869141" xlink:href="#DejaVuSans-48"/>
      </g>
     </g>
    </g>
    <g id="xtick_6">
     <g id="line2d_11">
      <path clip-path="url(#pd9aac8a1df)" d="M 388.8 252 
L 388.8 34.56 
" style="fill:none;stroke:#b0b0b0;stroke-linecap:square;stroke-width:0.8;"/>
     </g>
     <g id="line2d_12">
      <g>
       <use style="stroke:#000000;stroke-width:0.8;" x="388.8" xlink:href="#mb109c93110" y="252"/>
      </g>
     </g>
     <g id="text_6">
      <!-- 3000 -->
      <defs>
       <path d="M 40.578125 39.3125 
Q 47.65625 37.796875 51.625 33 
Q 55.609375 28.21875 55.609375 21.1875 
Q 55.609375 10.40625 48.1875 4.484375 
Q 40.765625 -1.421875 27.09375 -1.421875 
Q 22.515625 -1.421875 17.65625 -0.515625 
Q 12.796875 0.390625 7.625 2.203125 
L 7.625 11.71875 
Q 11.71875 9.328125 16.59375 8.109375 
Q 21.484375 6.890625 26.8125 6.890625 
Q 36.078125 6.890625 40.9375 10.546875 
Q 45.796875 14.203125 45.796875 21.1875 
Q 45.796875 27.640625 41.28125 31.265625 
Q 36.765625 34.90625 28.71875 34.90625 
L 20.21875 34.90625 
L 20.21875 43.015625 
L 29.109375 43.015625 
Q 36.375 43.015625 40.234375 45.921875 
Q 44.09375 48.828125 44.09375 54.296875 
Q 44.09375 59.90625 40.109375 62.90625 
Q 36.140625 65.921875 28.71875 65.921875 
Q 24.65625 65.921875 20.015625 65.03125 
Q 15.375 64.15625 9.8125 62.3125 
L 9.8125 71.09375 
Q 15.4375 72.65625 20.34375 73.4375 
Q 25.25 74.21875 29.59375 74.21875 
Q 40.828125 74.21875 47.359375 69.109375 
Q 53.90625 64.015625 53.90625 55.328125 
Q 53.90625 49.265625 50.4375 45.09375 
Q 46.96875 40.921875 40.578125 39.3125 
z
" id="DejaVuSans-51"/>
      </defs>
      <g transform="translate(376.075 266.598437)scale(0.1 -0.1)">
       <use xlink:href="#DejaVuSans-51"/>
       <use x="63.623047" xlink:href="#DejaVuSans-48"/>
       <use x="127.246094" xlink:href="#DejaVuSans-48"/>
       <use x="190.869141" xlink:href="#DejaVuSans-48"/>
      </g>
     </g>
    </g>
    <g id="text_7">
     <!-- Chunk size -->
     <defs>
      <path d="M 64.40625 67.28125 
L 64.40625 56.890625 
Q 59.421875 61.53125 53.78125 63.8125 
Q 48.140625 66.109375 41.796875 66.109375 
Q 29.296875 66.109375 22.65625 58.46875 
Q 16.015625 50.828125 16.015625 36.375 
Q 16.015625 21.96875 22.65625 14.328125 
Q 29.296875 6.6875 41.796875 6.6875 
Q 48.140625 6.6875 53.78125 8.984375 
Q 59.421875 11.28125 64.40625 15.921875 
L 64.40625 5.609375 
Q 59.234375 2.09375 53.4375 0.328125 
Q 47.65625 -1.421875 41.21875 -1.421875 
Q 24.65625 -1.421875 15.125 8.703125 
Q 5.609375 18.84375 5.609375 36.375 
Q 5.609375 53.953125 15.125 64.078125 
Q 24.65625 74.21875 41.21875 74.21875 
Q 47.75 74.21875 53.53125 72.484375 
Q 59.328125 70.75 64.40625 67.28125 
z
" id="DejaVuSans-67"/>
      <path d="M 54.890625 33.015625 
L 54.890625 0 
L 45.90625 0 
L 45.90625 32.71875 
Q 45.90625 40.484375 42.875 44.328125 
Q 39.84375 48.1875 33.796875 48.1875 
Q 26.515625 48.1875 22.3125 43.546875 
Q 18.109375 38.921875 18.109375 30.90625 
L 18.109375 0 
L 9.078125 0 
L 9.078125 75.984375 
L 18.109375 75.984375 
L 18.109375 46.1875 
Q 21.34375 51.125 25.703125 53.5625 
Q 30.078125 56 35.796875 56 
Q 45.21875 56 50.046875 50.171875 
Q 54.890625 44.34375 54.890625 33.015625 
z
" id="DejaVuSans-104"/>
      <path d="M 8.5 21.578125 
L 8.5 54.6875 
L 17.484375 54.6875 
L 17.484375 21.921875 
Q 17.484375 14.15625 20.5 10.265625 
Q 23.53125 6.390625 29.59375 6.390625 
Q 36.859375 6.390625 41.078125 11.03125 
Q 45.3125 15.671875 45.3125 23.6875 
L 45.3125 54.6875 
L 54.296875 54.6875 
L 54.296875 0 
L 45.3125 0 
L 45.3125 8.40625 
Q 42.046875 3.421875 37.71875 1 
Q 33.40625 -1.421875 27.6875 -1.421875 
Q 18.265625 -1.421875 13.375 4.4375 
Q 8.5 10.296875 8.5 21.578125 
z
M 31.109375 56 
z
" id="DejaVuSans-117"/>
      <path d="M 54.890625 33.015625 
L 54.890625 0 
L 45.90625 0 
L 45.90625 32.71875 
Q 45.90625 40.484375 42.875 44.328125 
Q 39.84375 48.1875 33.796875 48.1875 
Q 26.515625 48.1875 22.3125 43.546875 
Q 18.109375 38.921875 18.109375 30.90625 
L 18.109375 0 
L 9.078125 0 
L 9.078125 54.6875 
L 18.109375 54.6875 
L 18.109375 46.1875 
Q 21.34375 51.125 25.703125 53.5625 
Q 30.078125 56 35.796875 56 
Q 45.21875 56 50.046875 50.171875 
Q 54.890625 44.34375 54.890625 33.015625 
z
" id="DejaVuSans-110"/>
      <path d="M 9.078125 75.984375 
L 18.109375 75.984375 
L 18.109375 31.109375 
L 44.921875 54.6875 
L 56.390625 54.6875 
L 27.390625 29.109375 
L 57.625 0 
L 45.90625 0 
L 18.109375 26.703125 
L 18.109375 0 
L 9.078125 0 
z
" id="DejaVuSans-107"/>
      <path id="DejaVuSans-32"/>
      <path d="M 44.28125 53.078125 
L 44.28125 44.578125 
Q 40.484375 46.53125 36.375 47.5 
Q 32.28125 48.484375 27.875 48.484375 
Q 21.1875 48.484375 17.84375 46.4375 
Q 14.5 44.390625 14.5 40.28125 
Q 14.5 37.15625 16.890625 35.375 
Q 19.28125 33.59375 26.515625 31.984375 
L 29.59375 31.296875 
Q 39.15625 29.25 43.1875 25.515625 
Q 47.21875 21.78125 47.21875 15.09375 
Q 47.21875 7.46875 41.1875 3.015625 
Q 35.15625 -1.421875 24.609375 -1.421875 
Q 20.21875 -1.421875 15.453125 -0.5625 
Q 10.6875 0.296875 5.421875 2 
L 5.421875 11.28125 
Q 10.40625 8.6875 15.234375 7.390625 
Q 20.0625 6.109375 24.8125 6.109375 
Q 31.15625 6.109375 34.5625 8.28125 
Q 37.984375 10.453125 37.984375 14.40625 
Q 37.984375 18.0625 35.515625 20.015625 
Q 33.0625 21.96875 24.703125 23.78125 
L 21.578125 24.515625 
Q 13.234375 26.265625 9.515625 29.90625 
Q 5.8125 33.546875 5.8125 39.890625 
Q 5.8125 47.609375 11.28125 51.796875 
Q 16.75 56 26.8125 56 
Q 31.78125 56 36.171875 55.265625 
Q 40.578125 54.546875 44.28125 53.078125 
z
" id="DejaVuSans-115"/>
      <path d="M 9.421875 54.6875 
L 18.40625 54.6875 
L 18.40625 0 
L 9.421875 0 
z
M 9.421875 75.984375 
L 18.40625 75.984375 
L 18.40625 64.59375 
L 9.421875 64.59375 
z
" id="DejaVuSans-105"/>
      <path d="M 5.515625 54.6875 
L 48.1875 54.6875 
L 48.1875 46.484375 
L 14.40625 7.171875 
L 48.1875 7.171875 
L 48.1875 0 
L 4.296875 0 
L 4.296875 8.203125 
L 38.09375 47.515625 
L 5.515625 47.515625 
z
" id="DejaVuSans-122"/>
      <path d="M 56.203125 29.59375 
L 56.203125 25.203125 
L 14.890625 25.203125 
Q 15.484375 15.921875 20.484375 11.0625 
Q 25.484375 6.203125 34.421875 6.203125 
Q 39.59375 6.203125 44.453125 7.46875 
Q 49.3125 8.734375 54.109375 11.28125 
L 54.109375 2.78125 
Q 49.265625 0.734375 44.1875 -0.34375 
Q 39.109375 -1.421875 33.890625 -1.421875 
Q 20.796875 -1.421875 13.15625 6.1875 
Q 5.515625 13.8125 5.515625 26.8125 
Q 5.515625 40.234375 12.765625 48.109375 
Q 20.015625 56 32.328125 56 
Q 43.359375 56 49.78125 48.890625 
Q 56.203125 41.796875 56.203125 29.59375 
z
M 47.21875 32.234375 
Q 47.125 39.59375 43.09375 43.984375 
Q 39.0625 48.390625 32.421875 48.390625 
Q 24.90625 48.390625 20.390625 44.140625 
Q 15.875 39.890625 15.1875 32.171875 
z
" id="DejaVuSans-101"/>
     </defs>
     <g transform="translate(194.223437 280.276563)scale(0.1 -0.1)">
      <use xlink:href="#DejaVuSans-67"/>
      <use x="69.824219" xlink:href="#DejaVuSans-104"/>
      <use x="133.203125" xlink:href="#DejaVuSans-117"/>
      <use x="196.582031" xlink:href="#DejaVuSans-110"/>
      <use x="259.960938" xlink:href="#DejaVuSans-107"/>
      <use x="317.871094" xlink:href="#DejaVuSans-32"/>
      <use x="349.658203" xlink:href="#DejaVuSans-115"/>
      <use x="401.757812" xlink:href="#DejaVuSans-105"/>
      <use x="429.541016" xlink:href="#DejaVuSans-122"/>
      <use x="482.03125" xlink:href="#DejaVuSans-101"/>
     </g>
    </g>
   </g>
   <g id="matplotlib.axis_2">
    <g id="ytick_1">
     <g id="line2d_13">
      <path clip-path="url(#pd9aac8a1df)" d="M 54 252 
L 388.8 252 
" style="fill:none;stroke:#b0b0b0;stroke-linecap:square;stroke-width:0.8;"/>
     </g>
     <g id="line2d_14">
      <defs>
       <path d="M 0 0 
L -3.5 0 
" id="m7fc3f37b57" style="stroke:#000000;stroke-width:0.8;"/>
      </defs>
      <g>
       <use style="stroke:#000000;stroke-width:0.8;" x="54" xlink:href="#m7fc3f37b57" y="252"/>
      </g>
     </g>
     <g id="text_8">
      <!-- 0.0800 -->
      <defs>
       <path d="M 10.6875 12.40625 
L 21 12.40625 
L 21 0 
L 10.6875 0 
z
" id="DejaVuSans-46"/>
       <path d="M 31.78125 34.625 
Q 24.75 34.625 20.71875 30.859375 
Q 16.703125 27.09375 16.703125 20.515625 
Q 16.703125 13.921875 20.71875 10.15625 
Q 24.75 6.390625 31.78125 6.390625 
Q 38.8125 6.390625 42.859375 10.171875 
Q 46.921875 13.96875 46.921875 20.515625 
Q 46.921875 27.09375 42.890625 30.859375 
Q 38.875 34.625 31.78125 34.625 
z
M 21.921875 38.8125 
Q 15.578125 40.375 12.03125 44.71875 
Q 8.5 49.078125 8.5 55.328125 
Q 8.5 64.0625 14.71875 69.140625 
Q 20.953125 74.21875 31.78125 74.21875 
Q 42.671875 74.21875 48.875 69.140625 
Q 55.078125 64.0625 55.078125 55.328125 
Q 55.078125 49.078125 51.53125 44.71875 
Q 48 40.375 41.703125 38.8125 
Q 48.828125 37.15625 52.796875 32.3125 
Q 56.78125 27.484375 56.78125 20.515625 
Q 56.78125 9.90625 50.3125 4.234375 
Q 43.84375 -1.421875 31.78125 -1.421875 
Q 19.734375 -1.421875 13.25 4.234375 
Q 6.78125 9.90625 6.78125 20.515625 
Q 6.78125 27.484375 10.78125 32.3125 
Q 14.796875 37.15625 21.921875 38.8125 
z
M 18.3125 54.390625 
Q 18.3125 48.734375 21.84375 45.5625 
Q 25.390625 42.390625 31.78125 42.390625 
Q 38.140625 42.390625 41.71875 45.5625 
Q 45.3125 48.734375 45.3125 54.390625 
Q 45.3125 60.0625 41.71875 63.234375 
Q 38.140625 66.40625 31.78125 66.40625 
Q 25.390625 66.40625 21.84375 63.234375 
Q 18.3125 60.0625 18.3125 54.390625 
z
" id="DejaVuSans-56"/>
      </defs>
      <g transform="translate(12.009375 255.799219)scale(0.1 -0.1)">
       <use xlink:href="#DejaVuSans-48"/>
       <use x="63.623047" xlink:href="#DejaVuSans-46"/>
       <use x="95.410156" xlink:href="#DejaVuSans-48"/>
       <use x="159.033203" xlink:href="#DejaVuSans-56"/>
       <use x="222.65625" xlink:href="#DejaVuSans-48"/>
       <use x="286.279297" xlink:href="#DejaVuSans-48"/>
      </g>
     </g>
    </g>
    <g id="ytick_2">
     <g id="line2d_15">
      <path clip-path="url(#pd9aac8a1df)" d="M 54 224.82 
L 388.8 224.82 
" style="fill:none;stroke:#b0b0b0;stroke-linecap:square;stroke-width:0.8;"/>
     </g>
     <g id="line2d_16">
      <g>
       <use style="stroke:#000000;stroke-width:0.8;" x="54" xlink:href="#m7fc3f37b57" y="224.82"/>
      </g>
     </g>
     <g id="text_9">
      <!-- 0.0825 -->
      <g transform="translate(12.009375 228.619219)scale(0.1 -0.1)">
       <use xlink:href="#DejaVuSans-48"/>
       <use x="63.623047" xlink:href="#DejaVuSans-46"/>
       <use x="95.410156" xlink:href="#DejaVuSans-48"/>
       <use x="159.033203" xlink:href="#DejaVuSans-56"/>
       <use x="222.65625" xlink:href="#DejaVuSans-50"/>
       <use x="286.279297" xlink:href="#DejaVuSans-53"/>
      </g>
     </g>
    </g>
    <g id="ytick_3">
     <g id="line2d_17">
      <path clip-path="url(#pd9aac8a1df)" d="M 54 197.64 
L 388.8 197.64 
" style="fill:none;stroke:#b0b0b0;stroke-linecap:square;stroke-width:0.8;"/>
     </g>
     <g id="line2d_18">
      <g>
       <use style="stroke:#000000;stroke-width:0.8;" x="54" xlink:href="#m7fc3f37b57" y="197.64"/>
      </g>
     </g>
     <g id="text_10">
      <!-- 0.0850 -->
      <g transform="translate(12.009375 201.439219)scale(0.1 -0.1)">
       <use xlink:href="#DejaVuSans-48"/>
       <use x="63.623047" xlink:href="#DejaVuSans-46"/>
       <use x="95.410156" xlink:href="#DejaVuSans-48"/>
       <use x="159.033203" xlink:href="#DejaVuSans-56"/>
       <use x="222.65625" xlink:href="#DejaVuSans-53"/>
       <use x="286.279297" xlink:href="#DejaVuSans-48"/>
      </g>
     </g>
    </g>
    <g id="ytick_4">
     <g id="line2d_19">
      <path clip-path="url(#pd9aac8a1df)" d="M 54 170.46 
L 388.8 170.46 
" style="fill:none;stroke:#b0b0b0;stroke-linecap:square;stroke-width:0.8;"/>
     </g>
     <g id="line2d_20">
      <g>
       <use style="stroke:#000000;stroke-width:0.8;" x="54" xlink:href="#m7fc3f37b57" y="170.46"/>
      </g>
     </g>
     <g id="text_11">
      <!-- 0.0875 -->
      <defs>
       <path d="M 8.203125 72.90625 
L 55.078125 72.90625 
L 55.078125 68.703125 
L 28.609375 0 
L 18.3125 0 
L 43.21875 64.59375 
L 8.203125 64.59375 
z
" id="DejaVuSans-55"/>
      </defs>
      <g transform="translate(12.009375 174.259219)scale(0.1 -0.1)">
       <use xlink:href="#DejaVuSans-48"/>
       <use x="63.623047" xlink:href="#DejaVuSans-46"/>
       <use x="95.410156" xlink:href="#DejaVuSans-48"/>
       <use x="159.033203" xlink:href="#DejaVuSans-56"/>
       <use x="222.65625" xlink:href="#DejaVuSans-55"/>
       <use x="286.279297" xlink:href="#DejaVuSans-53"/>
      </g>
     </g>
    </g>
    <g id="ytick_5">
     <g id="line2d_21">
      <path clip-path="url(#pd9aac8a1df)" d="M 54 143.28 
L 388.8 143.28 
" style="fill:none;stroke:#b0b0b0;stroke-linecap:square;stroke-width:0.8;"/>
     </g>
     <g id="line2d_22">
      <g>
       <use style="stroke:#000000;stroke-width:0.8;" x="54" xlink:href="#m7fc3f37b57" y="143.28"/>
      </g>
     </g>
     <g id="text_12">
      <!-- 0.0900 -->
      <defs>
       <path d="M 10.984375 1.515625 
L 10.984375 10.5 
Q 14.703125 8.734375 18.5 7.8125 
Q 22.3125 6.890625 25.984375 6.890625 
Q 35.75 6.890625 40.890625 13.453125 
Q 46.046875 20.015625 46.78125 33.40625 
Q 43.953125 29.203125 39.59375 26.953125 
Q 35.25 24.703125 29.984375 24.703125 
Q 19.046875 24.703125 12.671875 31.3125 
Q 6.296875 37.9375 6.296875 49.421875 
Q 6.296875 60.640625 12.9375 67.421875 
Q 19.578125 74.21875 30.609375 74.21875 
Q 43.265625 74.21875 49.921875 64.515625 
Q 56.59375 54.828125 56.59375 36.375 
Q 56.59375 19.140625 48.40625 8.859375 
Q 40.234375 -1.421875 26.421875 -1.421875 
Q 22.703125 -1.421875 18.890625 -0.6875 
Q 15.09375 0.046875 10.984375 1.515625 
z
M 30.609375 32.421875 
Q 37.25 32.421875 41.125 36.953125 
Q 45.015625 41.5 45.015625 49.421875 
Q 45.015625 57.28125 41.125 61.84375 
Q 37.25 66.40625 30.609375 66.40625 
Q 23.96875 66.40625 20.09375 61.84375 
Q 16.21875 57.28125 16.21875 49.421875 
Q 16.21875 41.5 20.09375 36.953125 
Q 23.96875 32.421875 30.609375 32.421875 
z
" id="DejaVuSans-57"/>
      </defs>
      <g transform="translate(12.009375 147.079219)scale(0.1 -0.1)">
       <use xlink:href="#DejaVuSans-48"/>
       <use x="63.623047" xlink:href="#DejaVuSans-46"/>
       <use x="95.410156" xlink:href="#DejaVuSans-48"/>
       <use x="159.033203" xlink:href="#DejaVuSans-57"/>
       <use x="222.65625" xlink:href="#DejaVuSans-48"/>
       <use x="286.279297" xlink:href="#DejaVuSans-48"/>
      </g>
     </g>
    </g>
    <g id="ytick_6">
     <g id="line2d_23">
      <path clip-path="url(#pd9aac8a1df)" d="M 54 116.1 
L 388.8 116.1 
" style="fill:none;stroke:#b0b0b0;stroke-linecap:square;stroke-width:0.8;"/>
     </g>
     <g id="line2d_24">
      <g>
       <use style="stroke:#000000;stroke-width:0.8;" x="54" xlink:href="#m7fc3f37b57" y="116.1"/>
      </g>
     </g>
     <g id="text_13">
      <!-- 0.0925 -->
      <g transform="translate(12.009375 119.899219)scale(0.1 -0.1)">
       <use xlink:href="#DejaVuSans-48"/>
       <use x="63.623047" xlink:href="#DejaVuSans-46"/>
       <use x="95.410156" xlink:href="#DejaVuSans-48"/>
       <use x="159.033203" xlink:href="#DejaVuSans-57"/>
       <use x="222.65625" xlink:href="#DejaVuSans-50"/>
       <use x="286.279297" xlink:href="#DejaVuSans-53"/>
      </g>
     </g>
    </g>
    <g id="ytick_7">
     <g id="line2d_25">
      <path clip-path="url(#pd9aac8a1df)" d="M 54 88.92 
L 388.8 88.92 
" style="fill:none;stroke:#b0b0b0;stroke-linecap:square;stroke-width:0.8;"/>
     </g>
     <g id="line2d_26">
      <g>
       <use style="stroke:#000000;stroke-width:0.8;" x="54" xlink:href="#m7fc3f37b57" y="88.92"/>
      </g>
     </g>
     <g id="text_14">
      <!-- 0.0950 -->
      <g transform="translate(12.009375 92.719219)scale(0.1 -0.1)">
       <use xlink:href="#DejaVuSans-48"/>
       <use x="63.623047" xlink:href="#DejaVuSans-46"/>
       <use x="95.410156" xlink:href="#DejaVuSans-48"/>
       <use x="159.033203" xlink:href="#DejaVuSans-57"/>
       <use x="222.65625" xlink:href="#DejaVuSans-53"/>
       <use x="286.279297" xlink:href="#DejaVuSans-48"/>
      </g>
     </g>
    </g>
    <g id="ytick_8">
     <g id="line2d_27">
      <path clip-path="url(#pd9aac8a1df)" d="M 54 61.74 
L 388.8 61.74 
" style="fill:none;stroke:#b0b0b0;stroke-linecap:square;stroke-width:0.8;"/>
     </g>
     <g id="line2d_28">
      <g>
       <use style="stroke:#000000;stroke-width:0.8;" x="54" xlink:href="#m7fc3f37b57" y="61.74"/>
      </g>
     </g>
     <g id="text_15">
      <!-- 0.0975 -->
      <g transform="translate(12.009375 65.539219)scale(0.1 -0.1)">
       <use xlink:href="#DejaVuSans-48"/>
       <use x="63.623047" xlink:href="#DejaVuSans-46"/>
       <use x="95.410156" xlink:href="#DejaVuSans-48"/>
       <use x="159.033203" xlink:href="#DejaVuSans-57"/>
       <use x="222.65625" xlink:href="#DejaVuSans-55"/>
       <use x="286.279297" xlink:href="#DejaVuSans-53"/>
      </g>
     </g>
    </g>
    <g id="ytick_9">
     <g id="line2d_29">
      <path clip-path="url(#pd9aac8a1df)" d="M 54 34.56 
L 388.8 34.56 
" style="fill:none;stroke:#b0b0b0;stroke-linecap:square;stroke-width:0.8;"/>
     </g>
     <g id="line2d_30">
      <g>
       <use style="stroke:#000000;stroke-width:0.8;" x="54" xlink:href="#m7fc3f37b57" y="34.56"/>
      </g>
     </g>
     <g id="text_16">
      <!-- 0.1000 -->
      <g transform="translate(12.009375 38.359219)scale(0.1 -0.1)">
       <use xlink:href="#DejaVuSans-48"/>
       <use x="63.623047" xlink:href="#DejaVuSans-46"/>
       <use x="95.410156" xlink:href="#DejaVuSans-49"/>
       <use x="159.033203" xlink:href="#DejaVuSans-48"/>
       <use x="222.65625" xlink:href="#DejaVuSans-48"/>
       <use x="286.279297" xlink:href="#DejaVuSans-48"/>
      </g>
     </g>
    </g>
    <g id="text_17">
     <!-- Time (s) -->
     <defs>
      <path d="M -0.296875 72.90625 
L 61.375 72.90625 
L 61.375 64.59375 
L 35.5 64.59375 
L 35.5 0 
L 25.59375 0 
L 25.59375 64.59375 
L -0.296875 64.59375 
z
" id="DejaVuSans-84"/>
      <path d="M 52 44.1875 
Q 55.375 50.25 60.0625 53.125 
Q 64.75 56 71.09375 56 
Q 79.640625 56 84.28125 50.015625 
Q 88.921875 44.046875 88.921875 33.015625 
L 88.921875 0 
L 79.890625 0 
L 79.890625 32.71875 
Q 79.890625 40.578125 77.09375 44.375 
Q 74.3125 48.1875 68.609375 48.1875 
Q 61.625 48.1875 57.5625 43.546875 
Q 53.515625 38.921875 53.515625 30.90625 
L 53.515625 0 
L 44.484375 0 
L 44.484375 32.71875 
Q 44.484375 40.625 41.703125 44.40625 
Q 38.921875 48.1875 33.109375 48.1875 
Q 26.21875 48.1875 22.15625 43.53125 
Q 18.109375 38.875 18.109375 30.90625 
L 18.109375 0 
L 9.078125 0 
L 9.078125 54.6875 
L 18.109375 54.6875 
L 18.109375 46.1875 
Q 21.1875 51.21875 25.484375 53.609375 
Q 29.78125 56 35.6875 56 
Q 41.65625 56 45.828125 52.96875 
Q 50 49.953125 52 44.1875 
z
" id="DejaVuSans-109"/>
      <path d="M 31 75.875 
Q 24.46875 64.65625 21.28125 53.65625 
Q 18.109375 42.671875 18.109375 31.390625 
Q 18.109375 20.125 21.3125 9.0625 
Q 24.515625 -2 31 -13.1875 
L 23.1875 -13.1875 
Q 15.875 -1.703125 12.234375 9.375 
Q 8.59375 20.453125 8.59375 31.390625 
Q 8.59375 42.28125 12.203125 53.3125 
Q 15.828125 64.359375 23.1875 75.875 
z
" id="DejaVuSans-40"/>
      <path d="M 8.015625 75.875 
L 15.828125 75.875 
Q 23.140625 64.359375 26.78125 53.3125 
Q 30.421875 42.28125 30.421875 31.390625 
Q 30.421875 20.453125 26.78125 9.375 
Q 23.140625 -1.703125 15.828125 -13.1875 
L 8.015625 -13.1875 
Q 14.5 -2 17.703125 9.0625 
Q 20.90625 20.125 20.90625 31.390625 
Q 20.90625 42.671875 17.703125 53.65625 
Q 14.5 64.65625 8.015625 75.875 
z
" id="DejaVuSans-41"/>
     </defs>
     <g transform="translate(5.929687 163.762812)rotate(-90)scale(0.1 -0.1)">
      <use xlink:href="#DejaVuSans-84"/>
      <use x="61.037109" xlink:href="#DejaVuSans-105"/>
      <use x="88.820312" xlink:href="#DejaVuSans-109"/>
      <use x="186.232422" xlink:href="#DejaVuSans-101"/>
      <use x="247.755859" xlink:href="#DejaVuSans-32"/>
      <use x="279.542969" xlink:href="#DejaVuSans-40"/>
      <use x="318.556641" xlink:href="#DejaVuSans-115"/>
      <use x="370.65625" xlink:href="#DejaVuSans-41"/>
     </g>
    </g>
   </g>
   <g id="line2d_31">
    <path clip-path="url(#pd9aac8a1df)" d="M 55.56145 -1 
L 55.674558 32.33124 
L 55.782051 -1 
M 55.789718 -1 
L 56.00947 45.321106 
L 56.121107 54.82867 
L 56.232744 31.070088 
L 56.344381 47.832538 
L 56.456019 86.620572 
L 56.567656 60.11681 
L 56.679293 69.99511 
L 56.902568 102.398018 
L 57.014205 85.764946 
L 57.237479 121.37292 
L 57.349116 93.815662 
L 57.684028 131.030518 
L 57.795665 136.002283 
L 57.907302 132.580865 
L 58.01894 141.790536 
L 58.130577 138.247351 
L 58.242214 124.462742 
L 58.465488 140.870765 
L 58.577126 137.80921 
L 58.688763 129.206196 
L 58.8004 132.964646 
L 58.912037 156.63299 
L 59.023675 146.65793 
L 59.246949 155.792585 
L 59.358586 152.801698 
L 59.470223 165.557815 
L 59.581861 145.370686 
L 59.693498 150.421817 
L 59.805135 168.550877 
L 60.028409 150.189156 
L 60.251684 158.47362 
L 60.363321 153.387698 
L 60.586596 170.904665 
L 60.80987 154.639066 
L 60.921507 155.541442 
L 61.144782 166.68959 
L 61.256419 163.960718 
L 61.368056 178.45853 
L 61.59133 163.364933 
L 61.702968 158.219215 
L 61.814605 174.464158 
L 62.037879 154.727129 
L 62.149517 155.805631 
L 62.372791 177.805123 
L 62.484428 165.658925 
L 62.596065 173.60527 
L 62.707703 161.928742 
L 62.81934 177.089746 
L 62.930977 163.779156 
L 63.154251 172.638749 
L 63.377526 161.179661 
L 63.489163 172.06362 
L 63.6008 168.389971 
L 63.824075 175.13496 
L 63.935712 174.123864 
L 64.047349 178.067138 
L 64.270624 172.799654 
L 64.382261 184.909975 
L 64.493898 168.48347 
L 64.605535 173.515032 
L 64.717172 168.63133 
L 64.940447 176.355886 
L 65.052084 181.695125 
L 65.163721 177.983424 
L 65.275358 181.050415 
L 65.498633 175.108867 
L 65.61027 176.941886 
L 65.721907 164.660875 
L 65.833545 171.005774 
L 65.945182 184.447915 
L 66.280093 157.825649 
L 66.503368 185.775386 
L 66.615005 180.46985 
L 66.726642 182.11261 
L 66.949917 174.204317 
L 67.061554 184.054349 
L 67.173191 176.970154 
L 67.396465 185.288321 
L 67.508103 179.114112 
L 67.61974 187.584487 
L 67.843014 173.188872 
L 68.066289 179.45658 
L 68.177926 176.269997 
L 68.289563 183.028032 
L 68.4012 175.541573 
L 68.624475 185.402477 
L 68.736112 178.99452 
L 68.847749 187.960658 
L 68.959386 182.185452 
L 69.071024 186.910423 
L 69.182661 185.573167 
L 69.294298 178.997782 
L 69.517573 183.297658 
L 69.62921 189.310961 
L 69.740847 182.164795 
L 69.852484 183.113921 
L 70.075759 185.842793 
L 70.187396 185.643835 
L 70.299033 171.801605 
L 70.41067 184.562071 
L 70.522307 174.471768 
L 70.745582 186.473369 
L 70.857219 180.884074 
L 70.968856 163.522577 
L 71.080493 180.503554 
L 71.192131 150.505531 
L 71.303768 183.956501 
L 71.415405 183.41725 
L 71.527042 177.713798 
L 71.63868 185.724288 
L 71.750317 180.218707 
L 71.861954 184.318538 
L 71.973591 180.052366 
L 72.085228 184.357678 
L 72.196866 177.732281 
L 72.42014 188.730396 
L 72.531777 171.762466 
L 72.755052 185.503586 
L 72.866689 178.017127 
L 72.978326 178.030174 
L 73.201601 187.685597 
L 73.313238 170.48718 
L 73.536512 186.954998 
L 73.648149 184.650134 
L 73.759787 178.030174 
L 73.983061 191.254874 
L 74.094698 189.507744 
L 74.317973 183.745584 
L 74.42961 183.720578 
L 74.541247 192.779129 
L 74.652884 191.688667 
L 74.764522 181.970186 
L 74.876159 190.19268 
L 75.099433 180.293724 
L 75.21107 165.861144 
L 75.322708 181.926698 
L 75.434345 167.03532 
L 75.545982 187.512732 
L 75.657619 175.262162 
L 75.880894 186.031966 
L 75.992531 186.350515 
L 76.215805 171.06557 
L 76.327442 178.655314 
L 76.43908 167.288638 
L 76.550717 183.11827 
L 76.662354 170.04469 
L 76.773991 185.125241 
L 76.885629 175.202366 
L 76.997266 175.318697 
L 77.108903 178.694453 
L 77.22054 171.721152 
L 77.443815 195.771103 
L 77.555452 188.751053 
L 77.778726 191.82348 
L 77.890363 188.601019 
L 78.113638 178.546594 
L 78.225275 188.51513 
L 78.336912 175.466556 
L 78.44855 187.642109 
L 78.560187 174.90991 
L 78.671824 190.638432 
L 78.783461 186.327684 
L 78.895098 187.016969 
L 79.006736 186.532078 
L 79.118373 167.550653 
L 79.341647 196.325575 
L 79.453284 180.653587 
L 79.564922 189.381629 
L 79.676559 181.335262 
L 79.788196 189.762149 
L 79.899833 178.020389 
L 80.01147 188.162878 
L 80.123108 184.072831 
L 80.234745 175.179535 
L 80.458019 188.061768 
L 80.681294 180.039319 
L 80.792931 179.404394 
L 80.904568 197.735674 
L 81.127843 182.37245 
L 81.23948 193.04658 
L 81.462754 186.623402 
L 81.574391 194.544742 
L 81.686029 188.316173 
L 81.797666 189.595807 
L 82.02094 174.850114 
L 82.132578 157.164631 
L 82.355852 186.32551 
L 82.467489 187.449674 
L 82.690764 191.130934 
L 82.914038 191.558203 
L 83.025675 188.544485 
L 83.137312 188.751053 
L 83.24895 186.771262 
L 83.360587 193.850021 
L 83.472224 187.784532 
L 83.583861 193.591267 
L 83.695498 174.852288 
L 83.807136 192.162686 
L 84.03041 184.881708 
L 84.142047 194.295773 
L 84.253685 175.55027 
L 84.476959 190.589508 
L 84.588596 181.179792 
L 84.811871 190.855872 
L 84.923508 193.574959 
L 85.035145 176.902747 
L 85.146782 190.597118 
L 85.258419 182.035418 
L 85.370057 187.898688 
L 85.481694 171.715716 
L 85.704968 192.327941 
L 85.928243 185.475319 
L 86.03988 188.634722 
L 86.151517 172.788782 
L 86.263154 191.952857 
L 86.486429 176.762498 
L 86.598066 189.943711 
L 86.709703 184.713192 
L 86.82134 187.320298 
L 86.932978 194.16096 
L 87.044615 178.310671 
L 87.156252 188.411846 
L 87.267889 188.020454 
L 87.379527 190.078524 
L 87.491164 188.994586 
L 87.602801 101.976185 
L 87.826075 194.235977 
L 88.04935 176.138446 
L 88.160987 192.618223 
L 88.272624 192.136594 
L 88.384261 194.249023 
L 88.607536 189.844776 
L 88.719173 172.644185 
L 88.83081 191.563639 
L 88.942447 187.481203 
L 89.054085 189.979589 
L 89.165722 185.48293 
L 89.277359 193.110725 
L 89.388996 183.020422 
L 89.500634 185.980867 
L 89.612271 180.743825 
L 89.723908 197.561722 
L 89.835545 195.786324 
L 90.05882 182.814941 
L 90.170457 193.704336 
L 90.282094 190.332929 
L 90.505368 196.32775 
L 90.728643 183.69666 
L 90.84028 197.323625 
L 90.951917 180.762307 
L 91.063555 189.41207 
L 91.286829 180.376351 
L 91.398466 183.58033 
L 91.510103 192.921552 
L 91.621741 191.527762 
L 91.845015 192.46819 
L 91.956652 193.89677 
L 92.179927 182.48117 
L 92.291564 193.868503 
L 92.403201 181.563574 
L 92.514838 185.205694 
L 92.626475 192.546468 
L 92.738113 192.390998 
L 92.84975 187.87477 
L 92.961387 170.056649 
L 93.073024 173.335644 
L 93.184662 193.09333 
L 93.296299 186.983266 
L 93.407936 196.965936 
L 93.63121 182.543141 
L 93.742848 190.275307 
L 93.854485 187.499686 
L 93.966122 192.442097 
L 94.189396 174.147782 
L 94.412671 195.068772 
L 94.524308 172.509372 
L 94.747583 193.074847 
L 94.85922 197.913974 
L 94.970857 184.456613 
L 95.082494 184.505537 
L 95.194131 179.45658 
L 95.417406 192.447533 
L 95.529043 195.198149 
L 95.64068 180.94387 
L 95.752317 192.239878 
L 95.863955 184.793645 
L 95.975592 194.301209 
L 96.310504 178.779254 
L 96.422141 192.069187 
L 96.533778 181.518998 
L 96.757052 191.700626 
L 96.86869 186.936516 
L 96.980327 192.404045 
L 97.091964 190.902622 
L 97.203601 193.88155 
L 97.315238 192.979174 
L 97.426876 193.670633 
L 97.538513 174.96427 
L 97.761787 194.954616 
L 97.873424 190.648217 
L 97.985062 192.932424 
L 98.096699 181.337436 
L 98.319973 196.203809 
L 98.654885 178.543332 
L 98.766522 189.883915 
L 98.878159 177.13867 
L 99.213071 186.781046 
L 99.324708 182.623594 
L 99.436345 194.306645 
L 99.547983 193.207486 
L 99.771257 188.209627 
L 99.882894 196.810466 
L 99.994532 192.795437 
L 100.106169 182.95519 
L 100.329443 191.366856 
L 100.44108 190.814558 
L 100.552718 181.436371 
L 100.664355 194.280552 
L 100.775992 186.784308 
L 100.999266 197.144237 
L 101.222541 182.157185 
L 101.445815 193.316206 
L 101.557452 193.367304 
L 101.66909 190.151366 
L 101.780727 171.511322 
L 101.892364 193.567349 
L 102.227276 179.951256 
L 102.45055 194.868727 
L 102.562187 185.913461 
L 102.673825 191.818044 
L 102.785462 185.42857 
L 102.897099 195.262294 
L 103.008736 191.348374 
L 103.120373 194.230541 
L 103.232011 189.365321 
L 103.343648 189.645818 
L 103.455285 192.204 
L 103.566922 173.743344 
L 103.790197 196.17228 
L 103.901834 195.447118 
L 104.013471 188.590147 
L 104.125108 174.443501 
L 104.236746 192.198564 
L 104.46002 179.108676 
L 104.571657 194.308819 
L 104.794932 184.909975 
L 105.129843 196.765891 
L 105.24148 194.883948 
L 105.464755 186.827796 
L 105.576392 194.085943 
L 105.688029 184.834958 
L 105.911304 194.402318 
L 106.022941 193.863067 
L 106.134578 192.307284 
L 106.246215 194.085943 
L 106.357853 198.821786 
L 106.46949 187.23767 
L 106.581127 190.45687 
L 106.692764 188.131349 
L 106.804401 195.698261 
L 106.916039 187.354001 
L 107.027676 190.485137 
L 107.139313 189.632772 
L 107.25095 172.045138 
L 107.362588 177.250651 
L 107.585862 192.017002 
L 107.697499 191.436437 
L 107.920774 188.88043 
L 108.032411 196.084217 
L 108.255685 186.316812 
L 108.367322 188.271598 
L 108.47896 182.432246 
L 108.590597 197.089877 
L 108.702234 192.701938 
L 108.813871 177.898622 
L 108.925509 194.47951 
L 109.037146 192.823704 
L 109.148783 198.70002 
L 109.26042 181.633154 
L 109.483695 194.018537 
L 109.595332 191.514715 
L 109.706969 181.981058 
L 109.818606 191.835439 
L 109.930243 185.438354 
L 110.153518 196.473434 
L 110.488429 173.571566 
L 110.600067 196.364714 
L 110.711704 195.767842 
L 110.823341 187.77366 
L 110.934978 190.522102 
L 111.046616 198.111845 
L 111.381527 180.121946 
L 111.604802 193.012877 
L 111.716439 193.03897 
L 111.828076 192.805222 
L 112.05135 181.524434 
L 112.274625 193.424926 
L 112.386262 178.634657 
L 112.497899 192.880238 
L 112.609537 190.537322 
L 112.832811 184.881708 
L 112.944448 187.091986 
L 113.167723 195.561274 
L 113.27936 184.705582 
L 113.390997 194.443632 
L 113.614271 189.591458 
L 113.837546 195.685214 
L 113.949183 180.95148 
L 114.06082 198.370598 
L 114.395732 182.138702 
L 114.507369 194.687165 
L 114.619006 175.368708 
L 114.730644 196.631078 
L 114.842281 189.655603 
L 114.953918 194.05224 
L 115.177192 175.482864 
L 115.400467 191.561465 
L 115.512104 180.550303 
L 115.735378 194.782838 
L 115.847016 189.790416 
L 115.958653 198.025956 
L 116.07029 189.385978 
L 116.181927 194.554526 
L 116.405202 188.829331 
L 116.628476 189.77737 
L 116.740113 187.449674 
L 116.963388 198.499975 
L 117.075025 180.230666 
L 117.186662 199.881806 
L 117.298299 191.333153 
L 117.409937 192.32033 
L 117.521574 179.930599 
L 117.633211 192.610613 
L 117.744848 190.127448 
L 117.856485 193.852195 
L 117.968123 179.707723 
L 118.07976 197.551937 
L 118.303034 194.409929 
L 118.414672 189.24899 
L 118.526309 189.422942 
L 118.637946 194.736089 
L 118.749583 194.383836 
L 118.972858 185.659056 
L 119.084495 186.861499 
L 119.196132 189.617551 
L 119.307769 186.709291 
L 119.531044 195.656947 
L 119.642681 196.527794 
L 119.754318 185.59165 
L 119.865955 192.426876 
L 119.977593 185.363338 
L 120.08923 189.3501 
L 120.200867 200.332994 
L 120.312504 193.78805 
L 120.424141 194.972011 
L 120.647416 176.483088 
L 120.759053 195.026371 
L 120.87069 194.415365 
L 121.093965 180.112162 
L 121.205602 190.459044 
L 121.428876 188.981539 
L 121.540514 191.050481 
L 121.652151 184.355503 
L 121.763788 192.434486 
L 121.875425 188.35205 
L 121.987062 199.220789 
L 122.210337 193.790225 
L 122.321974 178.131283 
L 122.433611 193.157474 
L 122.545248 190.752588 
L 122.656886 193.067237 
L 122.88016 189.492523 
L 122.991797 190.700402 
L 123.103434 177.408295 
L 123.326709 191.520151 
L 123.438346 190.977638 
L 123.773258 200.029666 
L 124.108169 185.791694 
L 124.219807 183.142188 
L 124.331444 184.500101 
L 124.443081 193.603226 
L 124.554718 185.239397 
L 124.777993 197.940067 
L 124.88963 194.138129 
L 125.001267 194.508864 
L 125.224542 184.923022 
L 125.336179 194.511038 
L 125.447816 190.923278 
L 125.559453 194.497992 
L 125.67109 174.839242 
L 125.782728 202.134485 
L 125.894365 184.945853 
L 126.006002 191.981124 
L 126.117639 191.743027 
L 126.229276 182.333311 
L 126.452551 194.183791 
L 126.675825 180.925387 
L 126.787462 200.529778 
L 127.010737 195.17423 
L 127.122374 196.185326 
L 127.457286 184.958899 
L 127.568923 187.50186 
L 127.68056 186.23201 
L 127.792197 186.470107 
L 127.903835 193.554302 
L 128.127109 189.651254 
L 128.238746 196.677828 
L 128.350383 195.404717 
L 128.462021 190.884139 
L 128.573658 196.22664 
L 128.796932 189.764323 
L 129.020207 192.678019 
L 129.131844 198.414086 
L 129.355118 190.174198 
L 129.466756 192.219221 
L 129.578393 192.063751 
L 129.801667 195.848294 
L 129.913304 174.990362 
L 130.024942 195.825463 
L 130.248216 191.631046 
L 130.583128 198.831571 
L 130.806402 173.706379 
L 131.141314 195.731964 
L 131.252951 194.720868 
L 131.364588 196.85939 
L 131.587863 182.763842 
L 131.6995 106.996874 
L 131.922774 197.784598 
L 132.034411 188.063942 
L 132.146049 191.835439 
L 132.257686 188.07264 
L 132.369323 197.230126 
L 132.592598 190.744978 
L 132.815872 194.936134 
L 132.927509 176.161277 
L 133.150784 194.230541 
L 133.262421 184.48488 
L 133.374058 194.264244 
L 133.485695 187.016969 
L 133.597332 194.399057 
L 133.70897 194.27729 
L 133.820607 197.522582 
L 133.932244 193.370566 
L 134.043881 196.374499 
L 134.155519 172.38217 
L 134.378793 191.750638 
L 134.49043 182.389846 
L 134.602067 195.164446 
L 134.713705 180.653587 
L 134.825342 197.312753 
L 135.048616 190.542758 
L 135.160253 198.015084 
L 135.271891 186.973481 
L 135.495165 194.37079 
L 135.718439 186.898464 
L 135.830077 202.750927 
L 135.941714 195.885259 
L 136.053351 196.872437 
L 136.164988 200.299291 
L 136.276626 184.417474 
L 136.4999 193.523861 
L 136.611537 185.894978 
L 136.834812 197.541065 
L 136.946449 197.102923 
L 137.058086 191.582122 
L 137.169723 196.333186 
L 137.28136 194.318604 
L 137.392998 179.114112 
L 137.616272 201.765924 
L 137.727909 180.533995 
L 137.839547 191.221171 
L 137.951184 180.044755 
L 138.062821 196.17989 
L 138.174458 195.340572 
L 138.286095 190.672135 
L 138.732644 200.335169 
L 138.955919 198.119455 
L 139.179193 188.546659 
L 139.402467 193.445582 
L 139.514105 192.398609 
L 139.625742 180.962352 
L 139.737379 193.220532 
L 139.849016 181.636416 
L 139.960654 195.055726 
L 140.072291 182.447467 
L 140.295565 191.936549 
L 140.407202 186.644059 
L 140.51884 188.51513 
L 140.630477 180.837324 
L 140.853751 193.149864 
L 140.965388 191.065702 
L 141.077026 184.370724 
L 141.188663 191.254874 
L 141.411937 180.498118 
L 141.635212 194.645851 
L 141.746849 182.509438 
L 141.970123 197.093138 
L 142.081761 179.039095 
L 142.305035 196.11031 
L 142.416672 188.320522 
L 142.528309 192.986784 
L 142.639947 186.623402 
L 142.751584 197.06922 
L 142.863221 170.314315 
L 143.086495 196.724578 
L 143.198133 191.965903 
L 143.30977 195.758057 
L 143.421407 178.867318 
L 143.533044 200.119903 
L 143.756319 187.851938 
L 143.867956 195.161184 
L 144.09123 189.733882 
L 144.202868 200.026404 
L 144.426142 176.415682 
L 144.537779 189.743666 
L 144.649416 177.164762 
L 144.761054 191.747376 
L 144.984328 176.695092 
L 145.095965 194.767618 
L 145.207603 189.334879 
L 145.31924 193.440146 
L 145.430877 187.415971 
L 145.654151 194.619758 
L 145.877426 191.494058 
L 146.1007 199.024006 
L 146.212337 187.525778 
L 146.323975 198.398866 
L 146.547249 191.789777 
L 146.658886 196.190762 
L 146.993798 181.117822 
L 147.105435 201.136435 
L 147.440347 189.41207 
L 147.551984 190.630822 
L 147.663621 197.576942 
L 147.775258 192.020263 
L 147.886896 194.546916 
L 147.998533 189.684958 
L 148.11017 198.43583 
L 148.221807 191.872404 
L 148.333444 191.926764 
L 148.445082 167.174482 
L 148.556719 195.820027 
L 148.668356 187.030015 
L 148.779993 189.24138 
L 148.891631 197.543239 
L 149.003268 197.082266 
L 149.114905 192.618223 
L 149.338179 180.166522 
L 149.449817 195.633029 
L 149.561454 190.747152 
L 149.673091 195.84612 
L 149.784728 187.061544 
L 149.896365 188.022629 
L 150.008003 181.254809 
L 150.11964 195.083993 
L 150.231277 191.584296 
L 150.342914 197.644349 
L 150.454552 196.53323 
L 150.566189 198.735898 
L 150.677826 183.245472 
L 150.9011 197.250782 
L 151.124375 179.777304 
L 151.236012 198.196646 
L 151.459286 191.853922 
L 151.570924 191.988734 
L 151.682561 184.842569 
L 151.794198 193.95113 
L 151.905835 193.136818 
L 152.017472 178.219346 
L 152.240747 195.568884 
L 152.352384 198.072706 
L 152.575659 190.767809 
L 152.687296 196.677828 
L 152.91057 188.722786 
L 153.022207 198.380383 
L 153.133845 196.685438 
L 153.245482 197.362764 
L 153.357119 194.531695 
L 153.468756 197.462786 
L 153.580393 196.123356 
L 153.692031 190.874354 
L 153.803668 196.133141 
L 153.915305 195.872213 
L 154.026942 177.473527 
L 154.250217 197.808516 
L 154.361854 177.67031 
L 154.585128 200.306902 
L 154.696766 194.64259 
L 154.808403 198.730462 
L 155.031677 196.561498 
L 155.143314 196.853954 
L 155.254952 186.483154 
L 155.366589 197.248608 
L 155.478226 190.104617 
L 155.589863 190.384027 
L 155.701501 194.835024 
L 155.813138 191.913718 
L 156.036412 196.719142 
L 156.148049 196.625642 
L 156.371324 184.098924 
L 156.706235 194.578445 
L 156.92951 199.445839 
L 157.041147 193.515163 
L 157.152784 194.067461 
L 157.264421 199.316462 
L 157.376059 186.467933 
L 157.599333 201.421282 
L 157.71097 201.320172 
L 157.934245 181.117822 
L 158.045882 181.94953 
L 158.269156 192.616049 
L 158.380794 195.359054 
L 158.492431 176.71901 
L 158.715705 198.733723 
L 158.827342 200.327558 
L 158.93898 197.48453 
L 159.050617 197.91941 
L 159.273891 199.812226 
L 159.385529 195.153574 
L 159.608803 176.441774 
L 159.72044 180.290462 
L 159.832077 199.578478 
L 160.055352 185.044788 
L 160.278626 196.799594 
L 160.501901 189.780631 
L 160.613538 201.566966 
L 160.836812 186.584263 
L 160.948449 194.284901 
L 161.060087 193.215096 
L 161.171724 179.788176 
L 161.283361 180.949306 
L 161.506636 201.082075 
L 161.72991 193.069411 
L 161.841547 191.522326 
L 161.953184 195.168794 
L 162.064822 181.79406 
L 162.176459 183.507487 
L 162.288096 192.572561 
L 162.399733 187.91717 
L 162.51137 195.467774 
L 162.623008 193.409705 
L 162.734645 193.870678 
L 162.957919 191.584296 
L 163.069557 198.686974 
L 163.181194 189.497959 
L 163.404468 199.106633 
L 163.516105 192.175733 
L 163.627743 200.81245 
L 163.73938 194.645851 
L 163.851017 195.529745 
L 163.962654 181.595102 
L 164.074291 195.685214 
L 164.185929 187.33878 
L 164.409203 192.455143 
L 164.52084 189.45121 
L 164.632477 189.456646 
L 164.744115 194.220756 
L 164.855752 183.087828 
L 165.079026 196.486481 
L 165.190664 193.396658 
L 165.302301 179.904506 
L 165.413938 192.344249 
L 165.525575 186.960434 
L 165.860487 198.507586 
L 165.972124 193.911991 
L 166.083761 184.58599 
L 166.307036 198.044438 
L 166.53031 177.436562 
L 166.641947 179.650102 
L 166.753585 201.175574 
L 166.865222 190.892837 
L 166.976859 195.231852 
L 167.088496 189.529488 
L 167.200133 195.750446 
L 167.311771 195.076382 
L 167.423408 192.803047 
L 167.535045 184.616431 
L 167.646682 186.200482 
L 167.758319 198.246658 
L 167.869957 197.940067 
L 168.093231 201.432154 
L 168.316506 177.421342 
L 168.53978 192.908506 
L 168.651417 192.838925 
L 168.763054 193.987008 
L 168.986329 186.17004 
L 169.097966 194.220756 
L 169.209603 193.440146 
L 169.32124 189.145706 
L 169.432878 194.94918 
L 169.544515 193.831538 
L 169.656152 179.966477 
L 169.879426 198.194472 
L 169.991064 185.176339 
L 170.214338 199.954649 
L 170.437613 191.410344 
L 170.54925 179.074973 
L 170.660887 191.366856 
L 170.884161 190.954807 
L 170.995799 191.35381 
L 171.107436 197.020296 
L 171.219073 191.975688 
L 171.442347 194.142478 
L 171.553985 186.973481 
L 171.888896 201.939876 
L 172.112171 185.915635 
L 172.223808 199.353427 
L 172.447082 186.37987 
L 172.55872 182.895394 
L 172.670357 195.848294 
L 172.781994 190.420992 
L 172.893631 196.209245 
L 173.005268 186.620141 
L 173.116906 187.380094 
L 173.228543 201.688733 
L 173.34018 201.159266 
L 173.451817 188.127 
L 173.675092 198.404302 
L 174.010003 182.999765 
L 174.233278 193.031359 
L 174.344915 194.104426 
L 174.456552 192.442097 
L 174.568189 181.395058 
L 174.791464 194.43276 
L 174.903101 196.011374 
L 175.014738 203.297789 
L 175.126375 199.726337 
L 175.238013 183.774938 
L 175.34965 198.111845 
L 175.461287 195.135091 
L 175.572924 199.516507 
L 175.796199 192.761734 
L 175.907836 194.520823 
L 176.13111 179.909942 
L 176.242748 191.535372 
L 176.354385 189.775195 
L 176.466022 195.552576 
L 176.577659 182.46595 
L 176.689296 197.136626 
L 176.912571 184.271789 
L 177.024208 197.597599 
L 177.135845 187.318123 
L 177.247482 199.329509 
L 177.35912 198.803304 
L 177.582394 187.576877 
L 177.805669 195.325351 
L 177.917306 198.520632 
L 178.028943 192.092018 
L 178.14058 199.565431 
L 178.363855 187.071329 
L 178.475492 185.231786 
L 178.587129 200.516731 
L 178.698766 198.565207 
L 178.810403 188.544485 
L 178.922041 197.629128 
L 179.145315 183.919536 
L 179.256952 186.999574 
L 179.480227 196.084217 
L 179.591864 192.473626 
L 179.703501 198.085752 
L 179.926776 185.705806 
L 180.038413 189.500134 
L 180.15005 198.212954 
L 180.373324 187.861723 
L 180.484962 187.243106 
L 180.708236 203.651129 
L 180.931511 193.007441 
L 181.043148 198.256442 
L 181.154785 186.477718 
L 181.378059 199.057709 
L 181.601334 184.746895 
L 181.712971 199.249056 
L 181.824608 192.424702 
L 181.936245 196.452778 
L 182.047883 186.902813 
L 182.15952 195.822202 
L 182.271157 187.913909 
L 182.382794 197.481269 
L 182.829343 186.039576 
L 182.94098 186.454886 
L 183.052618 199.526292 
L 183.164255 182.190888 
L 183.275892 197.720453 
L 183.387529 185.233961 
L 183.499166 191.36142 
L 183.610804 179.106502 
L 183.722441 198.883757 
L 183.834078 195.825463 
L 183.945715 183.863002 
L 184.057352 196.769153 
L 184.16899 196.419074 
L 184.280627 183.230251 
L 184.392264 200.443889 
L 184.503901 198.696758 
L 184.615539 176.260212 
L 184.838813 198.632614 
L 185.062087 194.399057 
L 185.285362 190.791727 
L 185.396999 188.095471 
L 185.508636 199.982916 
L 185.620273 197.505187 
L 185.731911 191.77673 
L 185.843548 199.272974 
L 185.955185 191.36903 
L 186.290097 198.709805 
L 186.401734 197.364938 
L 186.513371 192.37469 
L 186.625008 179.445708 
L 186.736646 187.580138 
L 186.848283 182.455078 
L 186.95992 197.362764 
L 187.183194 187.460546 
L 187.294832 178.797737 
L 187.518106 200.918995 
L 187.629743 191.183119 
L 187.853018 200.415622 
L 188.076292 190.249214 
L 188.187929 191.818044 
L 188.299567 196.890919 
L 188.411204 196.322314 
L 188.522841 193.863067 
L 188.634478 195.05029 
L 188.746115 194.546916 
L 189.081027 180.445932 
L 189.304301 198.108583 
L 189.415939 187.675812 
L 189.639213 201.913783 
L 189.862487 187.72691 
L 189.974125 184.179377 
L 190.085762 190.972202 
L 190.197399 179.020613 
L 190.309036 196.6887 
L 190.420674 190.40251 
L 190.532311 194.951354 
L 190.643948 185.82431 
L 190.755585 197.992253 
L 190.97886 195.514524 
L 191.090497 195.542791 
L 191.202134 180.811231 
L 191.425408 195.374275 
L 191.537046 195.441682 
L 191.648683 188.844552 
L 191.76032 197.071394 
L 191.871957 180.62532 
L 192.095232 196.353842 
L 192.206869 193.119422 
L 192.318506 196.861565 
L 192.541781 185.088276 
L 192.653418 192.535596 
L 192.765055 162.34079 
L 192.988329 196.372325 
L 193.099967 180.46985 
L 193.211604 194.795885 
L 193.323241 182.288736 
L 193.546516 193.629319 
L 193.658153 190.578636 
L 193.76979 194.570834 
L 193.881427 190.731931 
L 194.104702 196.361453 
L 194.216339 190.101355 
L 194.327976 194.357743 
L 194.439613 186.392916 
L 194.55125 195.076382 
L 194.662888 194.83285 
L 194.774525 186.296155 
L 194.886162 190.661263 
L 194.997799 181.333087 
L 195.221074 195.638465 
L 195.332711 198.769601 
L 195.444348 190.0296 
L 195.555985 197.336671 
L 195.667623 193.902206 
L 195.77926 198.114019 
L 195.890897 197.790034 
L 196.002534 198.593474 
L 196.114171 197.417124 
L 196.225809 193.816318 
L 196.449083 178.323718 
L 196.56072 193.938084 
L 196.672357 185.286146 
L 196.783995 195.402542 
L 196.895632 194.904605 
L 197.007269 196.722403 
L 197.118906 184.16633 
L 197.230544 194.065286 
L 197.342181 193.266194 
L 197.677092 198.790258 
L 197.900367 193.728254 
L 198.012004 194.20771 
L 198.123641 198.715241 
L 198.458553 174.072766 
L 198.57019 202.977065 
L 198.793464 192.593218 
L 198.905102 195.008976 
L 199.016739 191.050481 
L 199.128376 191.820218 
L 199.240013 199.674151 
L 199.574925 184.370724 
L 199.686562 194.601276 
L 199.798199 189.297914 
L 199.909837 194.601276 
L 200.133111 185.747119 
L 200.356385 195.563448 
L 200.468023 190.936325 
L 200.57966 196.726752 
L 200.802934 179.876239 
L 200.914572 193.836974 
L 201.026209 191.507105 
L 201.249483 194.855681 
L 201.36112 191.957206 
L 201.472758 193.279241 
L 201.696032 179.333726 
L 201.807669 187.33878 
L 201.919306 185.391605 
L 202.030944 198.28471 
L 202.142581 194.20771 
L 202.254218 181.58423 
L 202.365855 192.750862 
L 202.477492 189.617551 
L 202.58913 200.262326 
L 202.700767 189.34249 
L 202.812404 191.346199 
L 202.924041 180.106726 
L 203.035679 192.35947 
L 203.147316 188.400974 
L 203.37059 197.595425 
L 203.482227 182.037593 
L 203.593865 199.910074 
L 203.705502 184.181551 
L 203.817139 189.565366 
L 203.928776 188.823895 
L 204.040413 183.9141 
L 204.152051 198.342331 
L 204.263688 192.256186 
L 204.375325 197.774813 
L 204.486962 182.265905 
L 204.821874 197.273614 
L 204.933511 178.73033 
L 205.268423 196.157059 
L 205.38006 193.621709 
L 205.491697 195.226416 
L 205.603334 184.842569 
L 205.714972 199.853539 
L 205.826609 194.516474 
L 205.938246 194.634979 
L 206.049883 197.85744 
L 206.161521 190.117663 
L 206.273158 195.447118 
L 206.384795 186.050448 
L 206.496432 193.437972 
L 206.608069 187.932391 
L 206.719707 173.191046 
L 206.942981 196.670218 
L 207.054618 195.78415 
L 207.166255 201.30169 
L 207.277893 181.148263 
L 207.38953 198.857664 
L 207.501167 190.233994 
L 207.612804 194.824152 
L 207.724441 185.656882 
L 207.947716 194.38601 
L 208.059353 192.878064 
L 208.17099 195.286212 
L 208.282628 193.906555 
L 208.394265 198.990302 
L 208.505902 197.468222 
L 208.617539 200.986402 
L 208.840814 195.138353 
L 208.952451 196.675654 
L 209.064088 191.724545 
L 209.175725 197.878097 
L 209.287362 194.95679 
L 209.399 183.492266 
L 209.510637 189.715399 
L 209.622274 183.539016 
L 209.733911 198.248832 
L 209.845549 181.395058 
L 209.957186 198.593474 
L 210.18046 183.515098 
L 210.515372 197.603035 
L 210.627009 193.58257 
L 210.738646 198.052049 
L 210.850283 195.218806 
L 210.961921 197.181202 
L 211.073558 193.502117 
L 211.185195 185.052398 
L 211.296832 197.862876 
L 211.408469 171.353678 
L 211.520107 201.374532 
L 211.855018 183.020422 
L 211.966656 198.76199 
L 212.078293 194.505602 
L 212.18993 195.127481 
L 212.301567 191.833265 
L 212.524842 200.203618 
L 212.636479 189.383803 
L 212.859753 198.627178 
L 213.083028 188.346614 
L 213.194665 200.125339 
L 213.306302 183.201984 
L 213.417939 195.910265 
L 213.529577 187.647545 
L 213.641214 198.733723 
L 213.752851 195.205759 
L 213.864488 186.910423 
L 213.976125 198.224914 
L 214.087763 187.390966 
L 214.311037 193.743475 
L 214.534311 200.522167 
L 214.645949 194.303383 
L 214.757586 197.471484 
L 214.869223 194.365354 
L 214.98086 194.43276 
L 215.092497 197.737848 
L 215.204135 183.911926 
L 215.427409 198.212954 
L 215.539046 195.106824 
L 215.650684 200.065543 
L 215.873958 186.423358 
L 216.097232 205.900546 
L 216.320507 193.37274 
L 216.432144 194.129431 
L 216.543781 198.085752 
L 216.655418 194.22293 
L 216.767056 194.226192 
L 216.878693 203.106442 
L 217.436879 186.96587 
L 217.548516 197.567158 
L 217.660153 193.598878 
L 217.771791 193.676069 
L 217.883428 193.440146 
L 217.995065 193.557564 
L 218.106702 197.302968 
L 218.329977 190.557979 
L 218.441614 167.050541 
L 218.553251 198.663055 
L 218.664888 196.758281 
L 218.776526 179.762083 
L 218.9998 194.383836 
L 219.111437 193.233578 
L 219.223074 194.284901 
L 219.334712 190.584072 
L 219.557986 199.980742 
L 219.669623 197.870486 
L 219.78126 178.290014 
L 219.892898 197.846568 
L 220.004535 194.441458 
L 220.116172 196.608247 
L 220.227809 195.949404 
L 220.339446 199.209917 
L 220.451084 181.625544 
L 220.562721 191.265746 
L 220.785995 164.28253 
L 221.00927 194.508864 
L 221.232544 197.875922 
L 221.344181 181.750572 
L 221.455819 184.971946 
L 221.679093 196.846344 
L 221.79073 183.883658 
L 221.902367 195.895044 
L 222.125642 190.767809 
L 222.348916 199.438229 
L 222.460554 168.520435 
L 222.572191 194.559962 
L 222.907102 188.986975 
L 223.01874 197.898754 
L 223.130377 196.27339 
L 223.242014 197.408426 
L 223.353651 192.325766 
L 223.465288 199.803528 
L 223.576926 187.613842 
L 223.688563 198.44779 
L 223.8002 197.878097 
L 223.911837 198.402127 
L 224.135112 201.239719 
L 224.358386 189.883915 
L 224.470023 185.243746 
L 224.581661 188.393364 
L 224.693298 202.484563 
L 224.916572 179.018438 
L 225.028209 189.449035 
L 225.139847 185.884106 
L 225.251484 191.14398 
L 225.363121 182.831249 
L 225.586395 195.200323 
L 225.698033 189.497959 
L 225.80967 189.821945 
L 225.921307 199.197958 
L 226.032944 197.082266 
L 226.144582 192.694327 
L 226.256219 183.222641 
L 226.367856 183.717317 
L 226.59113 202.510656 
L 226.926042 180.472025 
L 227.037679 201.735482 
L 227.149316 184.528368 
L 227.260954 196.722403 
L 227.372591 173.183436 
L 227.484228 199.848103 
L 227.707503 180.599227 
L 227.930777 199.389305 
L 228.154051 183.880397 
L 228.265689 193.790225 
L 228.377326 192.455143 
L 228.488963 189.116352 
L 228.6006 196.346232 
L 228.712237 191.46253 
L 228.935512 194.827414 
L 229.047149 199.246882 
L 229.270423 187.569266 
L 229.382061 198.149897 
L 229.493698 190.593857 
L 229.605335 196.024421 
L 229.716972 178.488972 
L 229.940247 196.664782 
L 230.163521 195.975497 
L 230.275158 197.27905 
L 230.498433 193.178131 
L 230.61007 192.921552 
L 230.721707 195.716743 
L 230.833344 182.706221 
L 231.168256 201.310387 
L 231.279893 199.664366 
L 231.391531 180.368741 
L 231.503168 198.114019 
L 231.614805 195.417763 
L 231.726442 200.690683 
L 231.838079 191.179858 
L 231.949717 194.039194 
L 232.172991 186.136337 
L 232.284628 187.29203 
L 232.507903 192.10289 
L 232.61954 189.580586 
L 232.731177 190.804774 
L 232.842814 197.481269 
L 232.954451 184.136976 
L 233.177726 193.32599 
L 233.289363 183.891269 
L 233.401 202.60633 
L 233.512638 194.239238 
L 233.735912 199.788307 
L 233.847549 200.66459 
L 233.959186 196.333186 
L 234.070824 200.70373 
L 234.294098 193.261846 
L 234.517372 200.895077 
L 234.62901 195.640639 
L 234.740647 199.389305 
L 234.852284 187.799753 
L 234.963921 201.743093 
L 235.075559 196.983331 
L 235.187196 198.671753 
L 235.298833 195.771103 
L 235.41047 187.730172 
L 235.522107 193.186829 
L 235.633745 188.375969 
L 235.745382 197.927021 
L 235.968656 194.140303 
L 236.080293 195.571058 
L 236.191931 194.709996 
L 236.303568 196.6887 
L 236.415205 192.439922 
L 236.526842 195.143789 
L 236.638479 185.819962 
L 236.750117 193.634755 
L 236.861754 193.119422 
L 236.973391 194.816542 
L 237.085028 192.741077 
L 237.196666 192.8835 
L 237.308303 179.207611 
L 237.41994 193.898945 
L 237.531577 183.387895 
L 237.643214 201.587623 
L 237.754852 199.218614 
L 237.866489 189.495785 
L 237.978126 191.294014 
L 238.089763 189.116352 
L 238.313038 198.494539 
L 238.647949 189.013068 
L 238.759587 197.563896 
L 238.982861 192.898721 
L 239.094498 193.73369 
L 239.206135 199.606745 
L 239.317773 192.724769 
L 239.42941 198.995738 
L 239.652684 195.879823 
L 239.764321 195.21337 
L 239.875959 187.554046 
L 239.987596 188.207453 
L 240.099233 199.681762 
L 240.21087 199.168603 
L 240.322508 185.31985 
L 240.545782 195.447118 
L 240.657419 197.74872 
L 240.880694 192.722594 
L 240.992331 191.786515 
L 241.103968 194.334912 
L 241.215605 191.19073 
L 241.327242 197.999863 
L 241.43888 197.670442 
L 241.550517 195.145963 
L 241.662154 197.940067 
L 241.773791 192.825878 
L 241.885428 195.514524 
L 241.997066 186.359213 
L 242.108703 193.634755 
L 242.22034 192.37469 
L 242.331977 203.982725 
L 242.443615 195.293822 
L 242.555252 196.983331 
L 242.666889 185.941728 
L 242.778526 193.797835 
L 242.890163 193.603226 
L 243.001801 188.473817 
L 243.113438 162.840902 
L 243.225075 197.711755 
L 243.448349 194.769792 
L 243.559987 187.170264 
L 243.671624 198.383645 
L 243.894898 186.454886 
L 244.006536 192.15725 
L 244.118173 191.962642 
L 244.22981 191.419042 
L 244.341447 176.563541 
L 244.564722 199.275149 
L 244.676359 200.726561 
L 245.01127 190.859134 
L 245.122908 199.078366 
L 245.346182 183.836909 
L 245.681094 201.971405 
L 245.904368 184.599036 
L 246.127643 185.930856 
L 246.23928 198.046613 
L 246.350917 194.080507 
L 246.462554 181.775578 
L 246.685829 201.732221 
L 246.797466 189.054382 
L 246.909103 189.752364 
L 247.02074 187.115904 
L 247.132377 192.04853 
L 247.244015 190.34815 
L 247.355652 186.529903 
L 247.467289 190.093745 
L 247.578926 186.402701 
L 247.802201 190.758024 
L 247.913838 183.567283 
L 248.025475 191.657138 
L 248.137112 183.629254 
L 248.24875 197.138801 
L 248.360387 190.996121 
L 248.472024 198.098798 
L 248.695298 184.316364 
L 248.806936 193.642366 
L 248.918573 188.743442 
L 249.03021 199.114243 
L 249.253484 191.19073 
L 249.365122 190.288354 
L 249.476759 183.175891 
L 249.811671 198.541289 
L 249.923308 188.960882 
L 250.146582 197.797644 
L 250.258219 194.752397 
L 250.369857 202.196455 
L 250.593131 200.571091 
L 250.816405 188.634722 
L 251.03968 196.880047 
L 251.262954 190.260086 
L 251.374592 198.254268 
L 251.486229 180.956916 
L 251.709503 191.57125 
L 251.932778 186.060233 
L 252.156052 199.902463 
L 252.267689 199.848103 
L 252.379326 185.643835 
L 252.490964 199.337119 
L 252.602601 190.218773 
L 252.714238 191.183119 
L 252.825875 195.325351 
L 252.937513 204.246914 
L 253.04915 190.374242 
L 253.160787 196.786548 
L 253.272424 196.331011 
L 253.384061 187.408361 
L 253.495699 199.24362 
L 253.718973 194.720868 
L 253.83061 197.619343 
L 253.942247 190.539497 
L 254.053885 194.933959 
L 254.165522 182.340922 
L 254.277159 200.713514 
L 254.388796 198.898978 
L 254.500433 192.924814 
L 254.612071 199.456711 
L 254.723708 199.445839 
L 254.835345 189.228334 
L 255.05862 198.235786 
L 255.170257 198.735898 
L 255.281894 192.675845 
L 255.393531 180.134993 
L 255.616806 198.093362 
L 255.728443 183.520534 
L 255.951717 197.082266 
L 256.063354 186.799529 
L 256.286629 194.134867 
L 256.398266 194.288162 
L 256.509903 185.02087 
L 256.733178 201.149482 
L 256.844815 196.187501 
L 256.956452 199.233835 
L 257.068089 194.376226 
L 257.179727 195.202498 
L 257.514638 183.922798 
L 257.737913 191.149416 
L 257.84955 195.244898 
L 257.961187 194.031583 
L 258.072824 199.020744 
L 258.184461 186.086326 
L 258.296099 200.625451 
L 258.519373 182.36484 
L 258.63101 182.874737 
L 258.742648 198.520632 
L 258.854285 190.273133 
L 258.965922 192.63127 
L 259.077559 192.481236 
L 259.300834 196.146187 
L 259.412471 187.691033 
L 259.635745 201.14622 
L 259.747382 196.297308 
L 259.85902 181.934309 
L 259.970657 197.955288 
L 260.082294 192.926988 
L 260.193931 193.067237 
L 260.305569 190.977638 
L 260.528843 200.123165 
L 260.752117 194.033758 
L 260.975392 183.756456 
L 261.087029 195.456902 
L 261.310303 194.125082 
L 261.421941 196.996378 
L 261.533578 202.852037 
L 261.756852 193.245538 
L 261.868489 187.421407 
L 261.980127 191.981124 
L 262.091764 186.679937 
L 262.203401 188.743442 
L 262.315038 183.764066 
L 262.426676 194.645851 
L 262.538313 194.666508 
L 262.64995 190.552543 
L 262.873224 198.007474 
L 262.984862 197.33341 
L 263.096499 195.314479 
L 263.208136 204.104491 
L 263.319773 198.380383 
L 263.43141 198.769601 
L 263.654685 189.586022 
L 263.766322 186.483154 
L 263.877959 198.559771 
L 263.989597 196.610422 
L 264.101234 199.277323 
L 264.212871 196.445167 
L 264.324508 204.521976 
L 264.436145 182.496391 
L 264.65942 199.391479 
L 264.882694 189.254426 
L 264.994331 193.502117 
L 265.105969 182.095214 
L 265.329243 194.422975 
L 265.44088 184.64796 
L 265.552518 195.138353 
L 265.664155 186.934342 
L 265.775792 196.882222 
L 265.887429 178.728156 
L 265.999066 197.499751 
L 266.110704 194.226192 
L 266.222341 195.342746 
L 266.333978 200.690683 
L 266.445615 196.524533 
L 266.557252 200.200356 
L 266.66889 198.850054 
L 266.780527 199.389305 
L 266.892164 198.041177 
L 267.003801 193.891334 
L 267.115438 183.36289 
L 267.227076 198.891367 
L 267.338713 193.925038 
L 267.45035 199.482804 
L 267.673625 191.926764 
L 267.785262 195.576494 
L 267.896899 191.82348 
L 268.008536 175.591584 
L 268.231811 199.057709 
L 268.343448 189.127224 
L 268.566722 200.81245 
L 268.789997 191.732155 
L 268.901634 197.696534 
L 269.124908 190.198116 
L 269.236546 198.868536 
L 269.348183 198.821786 
L 269.45982 200.301466 
L 269.571457 193.344473 
L 269.683094 177.792077 
L 269.794732 200.319948 
L 269.906369 190.902622 
L 270.018006 197.27905 
L 270.129643 177.369156 
L 270.24128 181.952791 
L 270.352918 201.185359 
L 270.464555 186.726686 
L 270.576192 200.13295 
L 270.687829 187.001748 
L 270.911104 188.232458 
L 271.022741 197.149673 
L 271.134378 196.556062 
L 271.246015 192.971563 
L 271.357653 185.430744 
L 271.46929 199.972044 
L 271.580927 198.557597 
L 271.804201 192.701938 
L 272.027476 201.799627 
L 272.25075 192.32033 
L 272.362387 192.118111 
L 272.474025 195.327526 
L 272.585662 192.792175 
L 272.697299 196.529969 
L 272.808936 194.443632 
L 273.032211 182.625768 
L 273.47876 198.834833 
L 273.590397 199.938341 
L 273.813671 195.741749 
L 273.925308 199.402351 
L 274.036946 189.145706 
L 274.148583 198.582602 
L 274.26022 194.176181 
L 274.371857 199.063145 
L 274.483494 196.291872 
L 274.595132 189.586022 
L 274.818406 199.425182 
L 274.930043 185.316588 
L 275.041681 196.447342 
L 275.153318 195.762406 
L 275.264955 184.715366 
L 275.599867 203.956632 
L 275.823141 186.346166 
L 275.934778 198.842443 
L 276.046415 196.80503 
L 276.158053 198.839182 
L 276.26969 193.814143 
L 276.381327 198.022694 
L 276.492964 180.891684 
L 276.827876 199.44149 
L 276.939513 186.187435 
L 277.162788 192.968302 
L 277.274425 178.273706 
L 277.497699 197.589989 
L 277.609336 185.223089 
L 277.720974 192.668234 
L 277.832611 187.799753 
L 278.055885 197.424734 
L 278.167523 187.947612 
L 278.27916 198.992477 
L 278.390797 192.037658 
L 278.502434 200.288419 
L 278.614071 197.071394 
L 278.725709 197.198597 
L 278.837346 187.089811 
L 279.06062 200.327558 
L 279.172257 193.26402 
L 279.283895 193.453193 
L 279.395532 189.088085 
L 279.507169 190.18507 
L 279.618806 189.127224 
L 279.730443 191.452745 
L 279.842081 189.368582 
L 279.953718 199.254492 
L 280.065355 186.125465 
L 280.400267 197.250782 
L 280.623541 195.387322 
L 280.735178 193.790225 
L 280.846816 179.414179 
L 280.958453 191.325542 
L 281.07009 180.925387 
L 281.405002 196.141838 
L 281.516639 195.79176 
L 281.628276 187.268112 
L 281.851551 199.12729 
L 282.074825 185.314414 
L 282.186462 177.13867 
L 282.298099 181.029758 
L 282.409737 197.567158 
L 282.521374 196.846344 
L 282.744648 190.088309 
L 282.856285 195.480821 
L 282.967923 180.412229 
L 283.191197 191.213561 
L 283.302834 185.080666 
L 283.414471 198.194472 
L 283.526109 191.706062 
L 283.637746 192.447533 
L 283.749383 196.9605 
L 283.86102 196.175542 
L 283.972658 194.297947 
L 284.084295 204.40021 
L 284.307569 190.98851 
L 284.419206 201.402799 
L 284.530844 197.466048 
L 284.642481 186.939778 
L 284.754118 187.546435 
L 284.977392 200.947262 
L 285.08903 185.92542 
L 285.200667 190.101355 
L 285.312304 201.149482 
L 285.423941 188.085686 
L 285.647216 202.393238 
L 285.87049 191.799562 
L 285.982127 190.617775 
L 286.093765 193.254235 
L 286.205402 185.38182 
L 286.317039 199.1349 
L 286.428676 172.846404 
L 286.540313 197.214905 
L 286.651951 176.752714 
L 286.763588 201.820284 
L 286.875225 201.701779 
L 287.098499 192.758472 
L 287.210137 179.889286 
L 287.321774 193.614098 
L 287.433411 192.567125 
L 287.545048 201.960533 
L 287.768323 193.552128 
L 287.87996 178.689017 
L 287.991597 195.703697 
L 288.214872 186.190697 
L 288.438146 193.123771 
L 288.549783 189.19463 
L 288.66142 193.03897 
L 288.773058 180.26437 
L 288.996332 192.408394 
L 289.107969 191.644092 
L 289.219607 198.054223 
L 289.331244 196.882222 
L 289.442881 198.8631 
L 289.554518 187.67255 
L 289.666155 195.392758 
L 289.777793 186.133075 
L 290.001067 198.764165 
L 290.112704 186.185261 
L 290.224341 189.992635 
L 290.335979 202.134485 
L 290.447616 200.509121 
L 290.559253 192.26597 
L 290.67089 198.282535 
L 290.782528 196.411464 
L 290.894165 199.48824 
L 291.005802 191.475576 
L 291.117439 197.763941 
L 291.229076 194.583881 
L 291.340714 200.775485 
L 291.452351 199.370822 
L 291.563988 200.92117 
L 291.675625 195.269904 
L 291.787262 198.301018 
L 291.8989 194.857855 
L 292.010537 170.520883 
L 292.122174 194.344697 
L 292.233811 181.908216 
L 292.568723 199.492589 
L 292.791997 191.123323 
L 292.903635 185.078491 
L 293.015272 193.258584 
L 293.126909 184.127191 
L 293.238546 201.338654 
L 293.350183 198.404302 
L 293.461821 199.508897 
L 293.573458 182.62903 
L 293.796732 195.773278 
L 293.908369 193.069411 
L 294.020007 186.153732 
L 294.131644 188.909784 
L 294.243281 186.628838 
L 294.354918 198.515196 
L 294.466556 193.297723 
L 294.578193 193.645627 
L 294.68983 187.136561 
L 294.801467 196.061386 
L 294.913104 192.445358 
L 295.024742 179.77513 
L 295.248016 201.250591 
L 295.582928 192.979174 
L 295.806202 200.293855 
L 295.917839 187.307251 
L 296.029476 193.544518 
L 296.141114 184.634914 
L 296.364388 197.572594 
L 296.476025 194.855681 
L 296.587663 195.295997 
L 296.6993 198.054223 
L 296.922574 179.183693 
L 297.145849 196.722403 
L 297.257486 195.586279 
L 297.369123 196.045078 
L 297.48076 191.164637 
L 297.704035 193.767394 
L 297.815672 198.70763 
L 298.038946 194.557788 
L 298.150584 196.052688 
L 298.262221 195.469949 
L 298.373858 200.670026 
L 298.485495 191.426652 
L 298.70877 197.505187 
L 298.820407 197.462786 
L 298.932044 197.190986 
L 299.043681 190.033949 
L 299.155318 196.91375 
L 299.266956 183.981506 
L 299.378593 194.301209 
L 299.49023 190.636258 
L 299.713505 200.672201 
L 299.825142 199.099022 
L 299.936779 193.735865 
L 300.048416 198.601085 
L 300.160053 196.612596 
L 300.271691 198.793519 
L 300.383328 197.997689 
L 300.494965 182.794284 
L 300.718239 197.595425 
L 300.829877 195.964625 
L 301.053151 199.138162 
L 301.164788 186.954998 
L 301.388063 200.750479 
L 301.4997 202.074689 
L 301.722974 194.668682 
L 301.834612 197.307317 
L 301.946249 195.731964 
L 302.057886 200.760264 
L 302.169523 193.168346 
L 302.28116 199.827446 
L 302.392798 196.737624 
L 302.504435 196.732188 
L 302.616072 181.0602 
L 302.727709 197.172504 
L 302.839346 193.953305 
L 302.950984 197.580204 
L 303.062621 192.460579 
L 303.174258 174.650069 
L 303.285895 191.791951 
L 303.397533 180.039319 
L 303.50917 180.599227 
L 303.620807 178.413955 
L 303.844081 190.295964 
L 303.955719 185.640574 
L 304.067356 187.739957 
L 304.29063 195.762406 
L 304.402267 195.32209 
L 304.513905 191.666923 
L 304.737179 200.413447 
L 304.848816 182.893219 
L 304.960453 183.048689 
L 305.183728 199.529554 
L 305.295365 196.426685 
L 305.407002 197.102923 
L 305.51864 199.58935 
L 305.630277 195.029633 
L 305.741914 198.668491 
L 305.853551 193.629319 
L 305.965188 197.64761 
L 306.188463 193.878288 
L 306.3001 194.436022 
L 306.411737 197.522582 
L 306.523374 190.073088 
L 306.635012 199.443665 
L 306.858286 197.75633 
L 307.081561 189.896962 
L 307.193198 192.714984 
L 307.304835 177.255 
L 307.416472 197.968334 
L 307.639747 190.685182 
L 307.751384 198.215129 
L 307.863021 196.846344 
L 307.974658 189.541447 
L 308.086295 196.213594 
L 308.30957 192.629095 
L 308.421207 185.796043 
L 308.532844 195.392758 
L 308.756119 178.921678 
L 308.979393 198.715241 
L 309.314305 194.04463 
L 309.425942 194.915477 
L 309.537579 192.125722 
L 309.649216 192.263796 
L 309.872491 201.149482 
L 309.984128 195.086167 
L 310.095765 195.59389 
L 310.207402 178.400909 
L 310.430677 193.94352 
L 310.542314 190.052431 
L 310.653951 200.861374 
L 310.765589 189.51318 
L 310.988863 197.142062 
L 311.212137 195.303607 
L 311.323775 200.239495 
L 311.547049 181.679904 
L 311.770323 195.928747 
L 311.881961 195.026371 
L 311.993598 191.825654 
L 312.216872 199.803528 
L 312.32851 197.06922 
L 312.440147 201.014669 
L 312.551784 190.413382 
L 312.663421 196.462562 
L 312.775058 188.466206 
L 312.998333 198.080316 
L 313.221607 189.041335 
L 313.333244 177.882314 
L 313.556519 195.713482 
L 313.779793 183.844519 
L 313.89143 200.739607 
L 314.114705 200.231885 
L 314.226342 181.724479 
L 314.337979 199.746994 
L 314.449617 191.778905 
L 314.672891 197.413862 
L 314.784528 195.889608 
L 314.896165 190.187244 
L 315.007803 192.050705 
L 315.11944 201.98119 
L 315.231077 188.849988 
L 315.454351 195.099214 
L 315.565989 200.014445 
L 315.677626 196.870262 
L 315.9009 182.947579 
L 316.012538 196.38972 
L 316.124175 193.839149 
L 316.235812 187.691033 
L 316.347449 201.483252 
L 316.459086 176.620075 
L 316.570724 194.728478 
L 316.682361 192.235529 
L 316.793998 180.441583 
L 316.905635 198.12163 
L 317.240547 178.142155 
L 317.352184 197.235562 
L 317.463821 178.413955 
L 317.575458 192.994394 
L 317.687096 175.988412 
L 317.91037 195.94723 
L 318.022007 185.524243 
L 318.245282 194.90243 
L 318.356919 192.499718 
L 318.580193 197.660657 
L 318.803468 181.524434 
L 318.915105 199.900289 
L 319.138379 179.305459 
L 319.250017 189.850212 
L 319.361654 189.391414 
L 319.473291 182.610547 
L 319.696566 198.007474 
L 319.808203 176.037336 
L 320.031477 198.829397 
L 320.143114 195.897218 
L 320.254752 187.717126 
L 320.478026 198.160769 
L 320.589663 190.951546 
L 320.7013 197.776987 
L 320.924575 188.556444 
L 321.036212 194.904605 
L 321.147849 193.445582 
L 321.259486 201.19297 
L 321.371124 195.303607 
L 321.594398 197.979206 
L 321.706035 190.947197 
L 321.92931 198.106409 
L 322.040947 170.09905 
L 322.152584 194.04463 
L 322.375859 184.3218 
L 322.487496 192.315982 
L 322.599133 183.924972 
L 322.71077 190.943935 
L 322.822407 178.642267 
L 322.934045 200.625451 
L 323.045682 188.18897 
L 323.157319 200.081851 
L 323.268956 194.334912 
L 323.380594 201.307126 
L 323.492231 185.638399 
L 323.603868 199.677413 
L 323.827142 187.605144 
L 323.93878 199.293631 
L 324.050417 174.87077 
L 324.162054 186.428794 
L 324.273691 186.174389 
L 324.496966 193.743475 
L 324.72024 189.355536 
L 324.831877 191.071138 
L 324.943515 179.932774 
L 325.055152 184.233737 
L 325.166789 202.943362 
L 325.390063 164.766334 
L 325.501701 190.177459 
L 325.836612 176.485262 
L 326.059887 195.496042 
L 326.171524 189.082649 
L 326.283161 194.132693 
L 326.394798 179.022787 
L 326.506435 194.958965 
L 326.618073 192.279017 
L 326.72971 195.044854 
L 326.841347 185.412262 
L 326.952984 195.202498 
L 327.064622 179.163036 
L 327.176259 186.374434 
L 327.287896 201.726785 
L 327.399533 196.128792 
L 327.51117 196.128792 
L 327.622808 194.876338 
L 327.734445 195.226416 
L 327.846082 187.219188 
L 327.957719 196.374499 
L 328.069356 182.939969 
L 328.180994 190.19268 
L 328.292631 186.745169 
L 328.404268 190.288354 
L 328.515905 197.419298 
L 328.73918 183.36289 
L 328.850817 196.408202 
L 328.962454 190.18507 
L 329.074091 198.103147 
L 329.185729 193.153126 
L 329.297366 193.966351 
L 329.409003 186.641885 
L 329.52064 198.673927 
L 329.743915 182.162621 
L 329.855552 190.586246 
L 329.967189 188.943487 
L 330.078826 197.196422 
L 330.190463 195.669994 
L 330.302101 185.612306 
L 330.525375 199.350166 
L 330.637012 183.623818 
L 330.860287 197.984642 
L 330.971924 172.965996 
L 331.083561 198.673927 
L 331.306836 182.180016 
L 331.418473 197.522582 
L 331.53011 197.248608 
L 331.641747 193.175957 
L 331.753384 195.05029 
L 331.865022 188.754314 
L 332.088296 194.415365 
L 332.199933 196.983331 
L 332.311571 195.820027 
L 332.423208 191.597342 
L 332.646482 197.947678 
L 332.758119 184.876272 
L 332.869757 189.271822 
L 332.981394 179.385912 
L 333.204668 199.799179 
L 333.316305 198.632614 
L 333.427943 199.44149 
L 333.651217 185.513371 
L 333.762854 190.3014 
L 333.874491 180.301334 
L 334.097766 198.484754 
L 334.209403 190.30901 
L 334.32104 199.503461 
L 334.432678 178.792301 
L 334.655952 196.149449 
L 334.879226 187.211578 
L 335.102501 194.497992 
L 335.214138 194.632805 
L 335.325775 195.986369 
L 335.437412 184.12393 
L 335.772324 194.134867 
L 335.883961 189.539273 
L 335.995599 178.670534 
L 336.107236 197.771551 
L 336.33051 181.752746 
L 336.442147 185.638399 
L 336.553785 166.127508 
L 336.665422 197.17033 
L 336.777059 181.488557 
L 337.000333 198.868536 
L 337.111971 191.045045 
L 337.223608 197.917236 
L 337.335245 197.784598 
L 337.446882 198.814176 
L 337.55852 194.181617 
L 337.670157 183.761892 
L 337.781794 191.457094 
L 338.005068 183.020422 
L 338.228343 195.156835 
L 338.33998 188.325958 
L 338.451617 188.715175 
L 338.674892 194.57627 
L 338.786529 194.046804 
L 338.898166 197.499751 
L 339.009803 197.252957 
L 339.233078 192.880238 
L 339.344715 196.473434 
L 339.456352 179.640317 
L 339.679627 194.443632 
L 339.791264 191.426652 
L 339.902901 180.05454 
L 340.014538 200.174263 
L 340.126175 189.786067 
L 340.34945 195.153574 
L 340.461087 187.377919 
L 340.684361 197.297532 
L 340.907636 192.217046 
L 341.019273 196.175542 
L 341.13091 195.578669 
L 341.242548 182.709482 
L 341.465822 196.724578 
L 341.689096 182.344183 
L 341.912371 194.992668 
L 342.135645 181.695125 
L 342.247282 185.114369 
L 342.35892 196.432121 
L 342.470557 195.59389 
L 342.582194 198.658706 
L 342.805468 187.50186 
L 342.917106 199.207742 
L 343.028743 194.990494 
L 343.14038 199.544774 
L 343.252017 198.694584 
L 343.363655 186.06893 
L 343.475292 192.724769 
L 343.586929 177.376766 
L 343.810203 198.728287 
L 343.921841 196.200547 
L 344.145115 199.578478 
L 344.256752 196.9605 
L 344.368389 199.801354 
L 344.591664 191.138544 
L 344.703301 190.910232 
L 344.814938 195.653686 
L 344.926576 190.840651 
L 345.14985 196.80503 
L 345.261487 180.930823 
L 345.373124 197.696534 
L 345.484762 196.419074 
L 345.596399 198.76199 
L 345.819673 184.650134 
L 345.93131 190.158977 
L 346.042948 184.591426 
L 346.489496 197.921585 
L 346.712771 180.606838 
L 346.936045 194.599102 
L 347.047683 195.089429 
L 347.270957 188.836942 
L 347.382594 199.415398 
L 347.494231 197.258393 
L 347.605869 185.324198 
L 347.717506 185.53729 
L 348.164055 199.887242 
L 348.387329 194.617584 
L 348.498966 196.75067 
L 348.610604 180.681854 
L 348.722241 190.833041 
L 348.833878 190.434038 
L 348.945515 188.39119 
L 349.057152 197.310578 
L 349.280427 185.941728 
L 349.503701 199.980742 
L 349.726976 191.565814 
L 349.838613 199.164254 
L 350.061887 185.610132 
L 350.285162 193.235753 
L 350.396799 195.286212 
L 350.508436 188.271598 
L 350.620073 193.468414 
L 350.731711 186.475543 
L 350.954985 200.361262 
L 351.066622 200.529778 
L 351.289897 194.803495 
L 351.401534 185.550336 
L 351.513171 198.827222 
L 351.736445 190.61995 
L 352.071357 197.310578 
L 352.182994 187.462721 
L 352.294632 197.79547 
L 352.406269 189.702353 
L 352.629543 194.619758 
L 352.74118 192.357295 
L 352.852818 195.861341 
L 352.964455 186.739733 
L 353.187729 192.323592 
L 353.299366 184.80343 
L 353.522641 200.685247 
L 353.634278 183.512923 
L 353.745915 197.406252 
L 353.857553 179.261971 
L 354.080827 191.084184 
L 354.304101 188.872819 
L 354.415739 196.566934 
L 354.527376 195.301433 
L 354.639013 181.110211 
L 354.75065 197.351892 
L 354.862287 185.713416 
L 354.973925 198.904414 
L 355.420473 188.67821 
L 355.532111 198.616306 
L 355.643748 191.537546 
L 355.755385 192.743251 
L 355.867022 186.262452 
L 355.97866 198.095537 
L 356.090297 174.196706 
L 356.313571 191.99417 
L 356.425208 199.883981 
L 356.536846 189.417506 
L 356.648483 200.65698 
L 356.76012 199.75243 
L 356.871757 188.704303 
L 356.983394 190.591682 
L 357.095032 187.022405 
L 357.206669 200.335169 
L 357.318306 190.20029 
L 357.429943 198.686974 
L 357.653218 183.076956 
L 357.876492 204.627434 
L 358.099767 193.844585 
L 358.211404 200.153606 
L 358.323041 200.076415 
L 358.434678 182.185452 
L 358.546315 186.763651 
L 358.76959 199.057709 
L 358.881227 184.230475 
L 358.992864 199.275149 
L 359.104502 182.351794 
L 359.327776 194.79371 
L 359.439413 196.076606 
L 359.662688 189.550145 
L 359.774325 198.91746 
L 359.885962 198.70002 
L 359.997599 182.561623 
L 360.220874 196.773502 
L 360.332511 196.716967 
L 360.444148 198.329285 
L 360.667422 194.988319 
L 360.77906 197.735674 
L 360.890697 191.846311 
L 361.002334 195.949404 
L 361.113971 187.050672 
L 361.225609 190.046995 
L 361.337246 196.623468 
L 361.448883 195.664558 
L 361.56052 185.721026 
L 361.783795 199.941602 
L 361.895432 191.503843 
L 362.007069 193.831538 
L 362.118706 184.936068 
L 362.341981 196.882222 
L 362.453618 197.473658 
L 362.565255 195.866777 
L 362.78853 183.973896 
L 362.900167 196.900704 
L 363.011804 194.578445 
L 363.123441 178.453094 
L 363.346716 199.925294 
L 363.458353 193.077022 
L 363.56999 200.153606 
L 363.681627 192.968302 
L 363.793264 196.198373 
L 363.904902 193.393397 
L 364.016539 176.775545 
L 364.128176 187.462721 
L 364.239813 184.114145 
L 364.35145 189.741492 
L 364.463088 185.355727 
L 364.686362 190.568851 
L 364.797999 198.940291 
L 364.909637 176.646168 
L 365.021274 195.501478 
L 365.244548 190.41012 
L 365.356185 195.501478 
L 365.467823 186.460322 
L 365.57946 187.50186 
L 365.802734 201.016843 
L 365.914371 193.917427 
L 366.026009 199.505635 
L 366.249283 196.693049 
L 366.472558 173.391091 
L 366.695832 195.093778 
L 366.807469 183.653172 
L 366.919106 194.627369 
L 367.030744 189.389239 
L 367.142381 196.558236 
L 367.254018 184.427258 
L 367.365655 187.402925 
L 367.477292 193.979398 
L 367.58893 192.336638 
L 367.812204 198.803304 
L 367.923841 197.528018 
L 368.035478 187.263763 
L 368.147116 187.714951 
L 368.258753 180.505728 
L 368.705302 201.359311 
L 368.816939 200.153606 
L 369.040213 194.707822 
L 369.263488 199.518682 
L 369.375125 196.595201 
L 369.486762 200.39279 
L 369.710037 196.159234 
L 369.821674 200.182961 
L 369.933311 198.990302 
L 370.044948 180.861242 
L 370.156586 194.482771 
L 370.268223 193.567349 
L 370.37986 197.769377 
L 370.491497 182.338747 
L 370.603134 197.468222 
L 370.714772 189.87413 
L 370.938046 193.41949 
L 371.049683 187.561656 
L 371.16132 197.383421 
L 371.384595 184.088052 
L 371.607869 200.544998 
L 371.719507 191.346199 
L 371.831144 192.282278 
L 371.942781 195.01115 
L 372.166055 179.228268 
L 372.38933 193.129207 
L 372.500967 190.9809 
L 372.612604 201.346265 
L 372.724241 188.354225 
L 372.835879 189.930665 
L 372.947516 195.672168 
L 373.17079 188.797802 
L 373.394065 202.960757 
L 373.505702 194.853506 
L 373.617339 196.419074 
L 373.728976 192.790001 
L 373.840614 193.393397 
L 374.063888 199.063145 
L 374.175525 190.233994 
L 374.287162 194.085943 
L 374.510437 185.31985 
L 374.622074 198.310802 
L 374.733711 194.982883 
L 374.845348 198.127066 
L 374.956986 194.806757 
L 375.068623 177.797513 
L 375.18026 190.82543 
L 375.403535 187.623626 
L 375.515172 198.365162 
L 375.626809 177.854047 
L 375.738446 201.213626 
L 375.850083 195.278602 
L 375.961721 196.426685 
L 376.073358 200.838542 
L 376.184995 196.284262 
L 376.296632 199.995962 
L 376.408269 197.608471 
L 376.519907 203.479351 
L 376.631544 196.317965 
L 376.743181 200.003573 
L 376.854818 188.598845 
L 376.966455 190.413382 
L 377.078093 187.810625 
L 377.18973 189.844776 
L 377.301367 183.404203 
L 377.413004 198.269489 
L 377.524642 197.276875 
L 377.636279 195.078557 
L 377.747916 204.246914 
L 377.859553 192.282278 
L 377.97119 201.540874 
L 378.082828 185.889542 
L 378.194465 187.576877 
L 378.417739 201.722436 
L 378.529376 196.820251 
L 378.641014 171.700495 
L 378.752651 200.793967 
L 378.975925 188.919569 
L 379.1992 196.543015 
L 379.310837 184.736023 
L 379.422474 202.98685 
L 379.757386 184.127191 
L 379.98066 195.447118 
L 380.092297 175.71335 
L 380.315572 200.271024 
L 380.538846 183.75863 
L 380.650483 199.76765 
L 380.762121 196.932233 
L 380.873758 198.140112 
L 380.985395 196.271215 
L 381.097032 187.359437 
L 381.20867 195.597151 
L 381.320307 173.382394 
L 381.431944 194.930698 
L 381.543581 190.000246 
L 381.655218 199.29798 
L 381.878493 188.443375 
L 382.101767 199.617617 
L 382.213404 198.168379 
L 382.548316 185.65362 
L 382.659953 184.772988 
L 382.771591 182.90083 
L 382.883228 185.630789 
L 382.994865 168.509563 
L 383.218139 195.565622 
L 383.329777 185.350291 
L 383.441414 194.573009 
L 383.553051 183.460738 
L 383.664688 191.309234 
L 383.776325 185.938466 
L 383.887963 200.340605 
L 383.9996 181.51465 
L 384.222874 199.368648 
L 384.446149 182.213719 
L 384.557786 196.387546 
L 384.669423 194.754571 
L 384.78106 199.000087 
L 385.004335 188.046547 
L 385.115972 194.469725 
L 385.227609 183.790159 
L 385.450884 197.707406 
L 385.562521 179.533771 
L 385.785795 195.638465 
L 385.897432 198.582602 
L 386.00907 188.810849 
L 386.120707 197.745458 
L 386.232344 194.801321 
L 386.343981 196.237512 
L 386.455619 190.687356 
L 386.567256 196.769153 
L 386.79053 195.091603 
L 386.902167 170.451302 
L 387.237079 202.691131 
L 387.460353 179.248925 
L 387.683628 202.072514 
L 387.795265 194.951354 
L 387.906902 179.127158 
L 388.01854 203.591333 
L 388.130177 190.842826 
L 388.241814 192.694327 
L 388.353451 179.788176 
L 388.576726 195.936358 
L 388.688363 194.327302 
L 388.8 188.927179 
L 388.8 188.927179 
" style="fill:none;stroke:#1f77b4;stroke-linecap:square;"/>
   </g>
   <g id="patch_3">
    <path d="M 54 252 
L 54 34.56 
" style="fill:none;stroke:#000000;stroke-linecap:square;stroke-linejoin:miter;stroke-width:0.8;"/>
   </g>
   <g id="patch_4">
    <path d="M 388.8 252 
L 388.8 34.56 
" style="fill:none;stroke:#000000;stroke-linecap:square;stroke-linejoin:miter;stroke-width:0.8;"/>
   </g>
   <g id="patch_5">
    <path d="M 54 252 
L 388.8 252 
" style="fill:none;stroke:#000000;stroke-linecap:square;stroke-linejoin:miter;stroke-width:0.8;"/>
   </g>
   <g id="patch_6">
    <path d="M 54 34.56 
L 388.8 34.56 
" style="fill:none;stroke:#000000;stroke-linecap:square;stroke-linejoin:miter;stroke-width:0.8;"/>
   </g>
   <g id="legend_1">
    <g id="patch_7">
     <path d="M 377.8 47.56 
L 381.8 47.56 
Q 383.8 47.56 383.8 45.56 
L 383.8 41.56 
Q 383.8 39.56 381.8 39.56 
L 377.8 39.56 
Q 375.8 39.56 375.8 41.56 
L 375.8 45.56 
Q 375.8 47.56 377.8 47.56 
z
" style="fill:#ffffff;opacity:0.8;stroke:#cccccc;stroke-linejoin:miter;"/>
    </g>
   </g>
  </g>
 </g>
 <defs>
  <clipPath id="pd9aac8a1df">
   <rect height="217.44" width="334.8" x="54" y="34.56"/>
  </clipPath>
 </defs>
</svg>
